<svg width="80" height="81" viewBox="0 0 80 81" fill="none" xmlns="http://www.w3.org/2000/svg">
<g id="Air Defense">
<path id="Rectangle 3" d="M3.24512 40.4999L40 3.74499L76.7549 40.4999L40 77.2547L3.24512 40.4999Z" fill="black" fill-opacity="0.5"/>
<g id="Union">
<mask id="path-2-outside-1_55_1039" maskUnits="userSpaceOnUse" x="0.245117" y="0.744991" width="80" height="80" fill="black">
<rect fill="white" x="0.245117" y="0.744991" width="80" height="80"/>
<path fill-rule="evenodd" clip-rule="evenodd" d="M40 3.74499L3.24512 40.4999L40 77.2547L76.7549 40.4999L40 3.74499ZM61.4722 49.2851L40 70.7573L18.5278 49.2852C23.8579 43.4784 31.5032 39.8449 40.0001 39.8449C48.4969 39.8449 56.1421 43.4784 61.4722 49.2851ZM65.5362 45.2211C59.1712 38.3843 50.0843 34.102 40.0001 34.102C29.9158 34.102 20.8288 38.3844 14.4639 45.2212L9.74252 40.4999L40 10.2424L70.2575 40.4999L65.5362 45.2211Z"/>
</mask>
<path fill-rule="evenodd" clip-rule="evenodd" d="M40 3.74499L3.24512 40.4999L40 77.2547L76.7549 40.4999L40 3.74499ZM61.4722 49.2851L40 70.7573L18.5278 49.2852C23.8579 43.4784 31.5032 39.8449 40.0001 39.8449C48.4969 39.8449 56.1421 43.4784 61.4722 49.2851ZM65.5362 45.2211C59.1712 38.3843 50.0843 34.102 40.0001 34.102C29.9158 34.102 20.8288 38.3844 14.4639 45.2212L9.74252 40.4999L40 10.2424L70.2575 40.4999L65.5362 45.2211Z" fill="#FF4E4E"/>
<path d="M3.24512 40.4999L1.8309 39.0856L0.41669 40.4999L1.8309 41.9141L3.24512 40.4999ZM40 3.74499L41.4142 2.33078L40 0.916564L38.5858 2.33078L40 3.74499ZM40 77.2547L38.5858 78.6689L40 80.0832L41.4142 78.6689L40 77.2547ZM76.7549 40.4999L78.1691 41.9141L79.5833 40.4999L78.1691 39.0856L76.7549 40.4999ZM40 70.7573L38.5858 72.1716L40 73.5858L41.4142 72.1716L40 70.7573ZM61.4722 49.2851L62.8864 50.6993L64.2414 49.3443L62.9456 47.9326L61.4722 49.2851ZM18.5278 49.2852L17.0544 47.9327L15.7586 49.3444L17.1136 50.6994L18.5278 49.2852ZM65.5362 45.2211L64.0724 46.5839L65.4848 48.101L66.9504 46.6353L65.5362 45.2211ZM14.4639 45.2212L13.0496 46.6354L14.5153 48.1011L15.9277 46.584L14.4639 45.2212ZM9.74252 40.4999L8.32831 39.0857L6.91409 40.4999L8.32831 41.9141L9.74252 40.4999ZM40 10.2424L41.4142 8.82818L40 7.41397L38.5858 8.82818L40 10.2424ZM70.2575 40.4999L71.6717 41.9141L73.0859 40.4999L71.6717 39.0857L70.2575 40.4999ZM4.65933 41.9141L41.4142 5.1592L38.5858 2.33078L1.8309 39.0856L4.65933 41.9141ZM41.4142 75.8405L4.65933 39.0856L1.8309 41.9141L38.5858 78.6689L41.4142 75.8405ZM75.3406 39.0856L38.5858 75.8405L41.4142 78.6689L78.1691 41.9141L75.3406 39.0856ZM38.5858 5.1592L75.3406 41.9141L78.1691 39.0856L41.4142 2.33078L38.5858 5.1592ZM41.4142 72.1716L62.8864 50.6993L60.058 47.8709L38.5858 69.3431L41.4142 72.1716ZM17.1136 50.6994L38.5858 72.1716L41.4142 69.3431L19.942 47.8709L17.1136 50.6994ZM40.0001 37.8449C30.9201 37.8449 22.7476 41.7305 17.0544 47.9327L20.0012 50.6376C24.9683 45.2263 32.0862 41.8449 40.0001 41.8449V37.8449ZM62.9456 47.9326C57.2525 41.7304 49.0799 37.8449 40.0001 37.8449V41.8449C47.9139 41.8449 55.0317 45.2263 59.9988 50.6375L62.9456 47.9326ZM40.0001 36.102C49.506 36.102 58.0698 40.1364 64.0724 46.5839L67 43.8583C60.2727 36.6323 50.6625 32.102 40.0001 32.102V36.102ZM15.9277 46.584C21.9303 40.1364 30.4941 36.102 40.0001 36.102V32.102C29.3376 32.102 19.7274 36.6324 13 43.8584L15.9277 46.584ZM8.32831 41.9141L13.0496 46.6354L15.8781 43.807L11.1567 39.0857L8.32831 41.9141ZM38.5858 8.82818L8.32831 39.0857L11.1567 41.9141L41.4142 11.6566L38.5858 8.82818ZM71.6717 39.0857L41.4142 8.82818L38.5858 11.6566L68.8432 41.9141L71.6717 39.0857ZM66.9504 46.6353L71.6717 41.9141L68.8432 39.0857L64.122 43.8069L66.9504 46.6353Z" fill="black" mask="url(#path-2-outside-1_55_1039)"/>
</g>
<path id="Rectangle 5" d="M0.707107 40.5L40 1.20711L79.2929 40.5L40 79.7929L0.707107 40.5Z" stroke="white"/>
</g>
</svg>
