<svg width="128" height="129" viewBox="0 0 128 129" fill="none" xmlns="http://www.w3.org/2000/svg">
<g id="Air Defense">
<path id="Rectangle 3" d="M5.19226 64.4998L64.0001 5.69199L122.808 64.4998L64.0001 123.308L5.19226 64.4998Z" fill="black" fill-opacity="0.5"/>
<g id="Union">
<mask id="path-2-outside-1_55_1028" maskUnits="userSpaceOnUse" x="0.192261" y="0.691986" width="128" height="128" fill="black">
<rect fill="white" x="0.192261" y="0.691986" width="128" height="128"/>
<path fill-rule="evenodd" clip-rule="evenodd" d="M64.0001 5.69199L5.19226 64.4998L64.0001 123.308L122.808 64.4998L64.0001 5.69199ZM98.3556 78.5562L64.0001 112.912L29.6446 78.5563C38.1728 69.2654 50.4052 63.4519 64.0002 63.4519C77.5951 63.4519 89.8274 69.2654 98.3556 78.5562ZM104.858 72.0538C94.674 61.115 80.1349 54.2632 64.0002 54.2632C47.8654 54.2632 33.3262 61.115 23.1422 72.0539L15.5881 64.4998L64.0001 16.0878L112.412 64.4998L104.858 72.0538Z"/>
</mask>
<path fill-rule="evenodd" clip-rule="evenodd" d="M64.0001 5.69199L5.19226 64.4998L64.0001 123.308L122.808 64.4998L64.0001 5.69199ZM98.3556 78.5562L64.0001 112.912L29.6446 78.5563C38.1728 69.2654 50.4052 63.4519 64.0002 63.4519C77.5951 63.4519 89.8274 69.2654 98.3556 78.5562ZM104.858 72.0538C94.674 61.115 80.1349 54.2632 64.0002 54.2632C47.8654 54.2632 33.3262 61.115 23.1422 72.0539L15.5881 64.4998L64.0001 16.0878L112.412 64.4998L104.858 72.0538Z" fill="#FF0000"/>
<path d="M5.19226 64.4998L2.92952 62.237L0.666777 64.4998L2.92952 66.7625L5.19226 64.4998ZM64.0001 5.69199L66.2628 3.42924L64.0001 1.1665L61.7373 3.42924L64.0001 5.69199ZM64.0001 123.308L61.7373 125.57L64.0001 127.833L66.2628 125.57L64.0001 123.308ZM122.808 64.4998L125.071 66.7625L127.333 64.4998L125.071 62.237L122.808 64.4998ZM64.0001 112.912L61.7373 115.174L64.0001 117.437L66.2628 115.174L64.0001 112.912ZM98.3556 78.5562L100.618 80.8189L102.786 78.6509L100.713 76.3922L98.3556 78.5562ZM29.6446 78.5563L27.2872 76.3923L25.2139 78.651L27.3818 80.819L29.6446 78.5563ZM104.858 72.0538L102.516 74.2343L104.776 76.6616L107.121 74.3166L104.858 72.0538ZM23.1422 72.0539L20.8795 74.3167L23.2246 76.6617L25.4844 74.2344L23.1422 72.0539ZM15.5881 64.4998L13.3254 62.237L11.0626 64.4998L13.3254 66.7625L15.5881 64.4998ZM64.0001 16.0878L66.2628 13.8251L64.0001 11.5624L61.7373 13.8251L64.0001 16.0878ZM112.412 64.4998L114.675 66.7625L116.937 64.4998L114.675 62.237L112.412 64.4998ZM7.455 66.7625L66.2628 7.95473L61.7373 3.42924L2.92952 62.237L7.455 66.7625ZM66.2628 121.045L7.455 62.237L2.92952 66.7625L61.7373 125.57L66.2628 121.045ZM120.545 62.237L61.7373 121.045L66.2628 125.57L125.071 66.7625L120.545 62.237ZM61.7373 7.95473L120.545 66.7625L125.071 62.237L66.2628 3.42924L61.7373 7.95473ZM66.2628 115.174L100.618 80.8189L96.0929 76.2934L61.7373 110.649L66.2628 115.174ZM27.3818 80.819L61.7373 115.174L66.2628 110.649L31.9073 76.2935L27.3818 80.819ZM64.0002 60.2519C49.4723 60.2519 36.3962 66.4687 27.2872 76.3923L32.002 80.7202C39.9494 72.0621 51.338 66.6519 64.0002 66.6519V60.2519ZM100.713 76.3922C91.604 66.4687 78.528 60.2519 64.0002 60.2519V66.6519C76.6622 66.6519 88.0508 72.062 95.9982 80.7201L100.713 76.3922ZM64.0002 57.4632C79.2097 57.4632 92.9117 63.9182 102.516 74.2343L107.2 69.8733C96.4364 58.3117 81.0601 51.0632 64.0002 51.0632V57.4632ZM25.4844 74.2344C35.0885 63.9182 48.7906 57.4632 64.0002 57.4632V51.0632C46.9402 51.0632 31.5639 58.3118 20.8001 69.8734L25.4844 74.2344ZM13.3254 66.7625L20.8795 74.3167L25.405 69.7912L17.8509 62.237L13.3254 66.7625ZM61.7373 13.8251L13.3254 62.237L17.8509 66.7625L66.2628 18.3506L61.7373 13.8251ZM114.675 62.237L66.2628 13.8251L61.7373 18.3506L110.149 66.7625L114.675 62.237ZM107.121 74.3166L114.675 66.7625L110.149 62.237L102.595 69.7911L107.121 74.3166Z" fill="black" mask="url(#path-2-outside-1_55_1028)"/>
</g>
<path id="Rectangle 5" d="M1.13137 64.5L64 1.63137L126.869 64.5L64 127.369L1.13137 64.5Z" stroke="white" stroke-width="1.6"/>
</g>
</svg>
