<svg width="128" height="129" viewBox="0 0 128 129" fill="none" xmlns="http://www.w3.org/2000/svg">
<g id="Group 28">
<path id="Rectangle 3" d="M5.1969 64.5L64 5.69695L122.803 64.5L64 123.303L5.1969 64.5Z" fill="black" fill-opacity="0.5"/>
<path id="Rectangle 7 (Stroke)" fill-rule="evenodd" clip-rule="evenodd" d="M5.1969 64.5L64 5.69695L122.803 64.5L64 123.303L5.1969 64.5ZM64 112.908L112.408 64.5L64 16.092L15.5919 64.5L64 112.908Z" fill="#FF0303"/>
<path id="Rectangle 4" d="M4.06553 63.3686L2.93416 64.5L4.06553 65.6314L62.8686 124.434L64 125.566L65.1313 124.434L123.934 65.6314L125.066 64.5L123.934 63.3686L65.1313 4.56557L64 3.4342L62.8686 4.56557L4.06553 63.3686Z" stroke="black" stroke-width="3.2"/>
<path id="Rectangle 5" d="M1.13137 64.5L64 1.63137L126.869 64.5L64 127.369L1.13137 64.5Z" stroke="white" stroke-width="1.6"/>
<path id="Rectangle 6" d="M17.8549 64.5L64 18.3549L110.145 64.5L64 110.645L17.8549 64.5Z" stroke="black" stroke-width="3.2"/>
<g id="Group 24">
<rect id="Rectangle 88" x="52.9744" y="93.9014" width="22.0511" height="12.16" fill="black"/>
<path id="Union" d="M54.2844 95.6758L54.2844 58.5352C54.2844 53.1451 57.0129 46.7569 64 43.962M64 43.962C70.9872 46.7569 73.7156 53.1451 73.7156 58.5352L73.7156 95.6758M64 43.962V105.412" stroke="black" stroke-width="11.2"/>
<path id="Union (Stroke)" fill-rule="evenodd" clip-rule="evenodd" d="M64.0001 40.9933L65.0238 41.4028C73.2913 44.7098 76.472 52.293 76.472 58.5352V107.469H70.9593V58.5352C70.9593 55.1787 69.714 51.4637 66.7565 48.8331V113.776H61.2437V48.8331C58.2861 51.4637 57.0409 55.1787 57.0409 58.5352V107.469H51.5281V58.5352C51.5281 52.293 54.7088 44.7098 62.9764 41.4028L64.0001 40.9933Z" fill="#FF0303"/>
</g>
</g>
</svg>
