<svg width="80" height="81" viewBox="0 0 80 81" fill="none" xmlns="http://www.w3.org/2000/svg">
<g id="Group 29">
<path id="Rectangle 3" d="M3.24805 40.5L40 3.74809L76.7519 40.5L40 77.2519L3.24805 40.5Z" fill="black" fill-opacity="0.5"/>
<path id="Rectangle 7 (Stroke)" fill-rule="evenodd" clip-rule="evenodd" d="M3.24805 40.5L40 3.74809L76.7519 40.5L40 77.2519L3.24805 40.5ZM40 70.755L70.255 40.5L40 10.245L9.74493 40.5L40 70.755Z" fill="#FF0000"/>
<path id="Rectangle 4" d="M2.54094 39.7929L1.83383 40.5L2.54094 41.2071L39.2928 77.959L40 78.6661L40.7071 77.959L77.459 41.2071L78.1661 40.5L77.459 39.7929L40.7071 3.04099L40 2.33388L39.2928 3.04099L2.54094 39.7929Z" stroke="black" stroke-width="2"/>
<path id="Rectangle 5" d="M0.707107 40.5L40 1.20711L79.2929 40.5L40 79.7929L0.707107 40.5Z" stroke="white"/>
<path id="Rectangle 6" d="M11.1593 40.5L40 11.6593L68.8407 40.5L40 69.3407L11.1593 40.5Z" stroke="black" stroke-width="2"/>
<g id="Group 24">
<rect id="Rectangle 88" x="33.109" y="58.8759" width="13.782" height="7.59998" fill="black"/>
<path id="Union" d="M33.9277 59.9849L33.9277 36.772C33.9277 33.4032 35.633 29.4105 40 27.6637M40 27.6637C44.367 29.4105 46.0722 33.4032 46.0722 36.772L46.0722 59.9849M40 27.6637V66.0698" stroke="black" stroke-width="7"/>
<path id="Union (Stroke)" fill-rule="evenodd" clip-rule="evenodd" d="M40.0001 25.8083L40.6399 26.0642C45.8071 28.1311 47.7951 32.8706 47.7951 36.772V67.3554H44.3496V36.772C44.3496 34.6742 43.5713 32.3523 41.7228 30.7082V71.2978H38.2773V30.7082C36.4288 32.3523 35.6506 34.6742 35.6506 36.772V67.3554H32.2051V36.772C32.2051 32.8706 34.193 28.1311 39.3603 26.0642L40.0001 25.8083Z" fill="#FF0000"/>
</g>
</g>
</svg>
