<svg width="80" height="81" viewBox="0 0 80 81" fill="none" xmlns="http://www.w3.org/2000/svg">
<g id="Radar">
<path id="Rectangle 7" d="M3.2522 40.5006L40 3.75278L76.7478 40.5006L40 77.2483L3.2522 40.5006Z" fill="black" fill-opacity="0.5"/>
<path id="Rectangle 3 (Stroke)" fill-rule="evenodd" clip-rule="evenodd" d="M3.2522 40.5006L40 3.75278L76.7478 40.5006L40 77.2483L3.2522 40.5006ZM40 70.7522L70.2516 40.5006L40 10.2489L9.74835 40.5006L40 70.7522Z" fill="#FF0000"/>
<path id="Rectangle 4" d="M2.54509 39.7935L1.83798 40.5006L2.54509 41.2077L39.2929 77.9555L40 78.6626L40.7071 77.9555L77.4549 41.2077L78.162 40.5006L77.4549 39.7935L40.7071 3.04567L40 2.33856L39.2929 3.04567L2.54509 39.7935Z" stroke="black" stroke-width="2"/>
<path id="Rectangle 5" d="M0.707107 40.5L40 1.20711L79.2929 40.5L40 79.7929L0.707107 40.5Z" stroke="white"/>
<path id="Rectangle 6" d="M11.1627 40.5008L40 11.6636L68.8373 40.5008L40 69.3381L11.1627 40.5008Z" stroke="black" stroke-width="2"/>
<path id="Vector (Stroke)" d="M36.9677 29.6282L37.6746 28.921L36.9674 28.214L34.7658 26.0132L34.0586 25.3062L33.3516 26.0134L29.5947 29.7717C23.7612 35.6073 23.7612 45.0682 29.5947 50.9038C35.4287 56.7399 44.8879 56.7399 50.7219 50.9038L54.4877 47.1367L55.1947 46.4294L54.4874 45.7225L52.2858 43.5217L51.5786 42.8147L50.8716 43.5219L47.1058 47.2891C43.3453 51.0509 37.2954 51.126 33.4434 47.5144L38.583 42.373V47.3185V49.7334L40.2902 48.0255L52.4545 35.8569L53.1615 35.1496L52.4543 34.4427L50.2527 32.2419L49.5455 31.5349L48.8385 32.2421L43.696 37.3865V32.4409V30.0261L41.9887 31.734L30.7041 43.0227C29.7664 39.7062 30.6033 35.9948 33.2108 33.3864L36.9677 29.6282Z" fill="#FF0000" stroke="black" stroke-width="2"/>
</g>
</svg>
