<svg width="128" height="129" viewBox="0 0 128 129" fill="none" xmlns="http://www.w3.org/2000/svg">
<g id="Radar">
<path id="Rectangle 7" d="M5.20349 64.5009L63.9999 5.70444L122.796 64.5009L63.9999 123.297L5.20349 64.5009Z" fill="black" fill-opacity="0.5"/>
<path id="Rectangle 3 (Stroke)" fill-rule="evenodd" clip-rule="evenodd" d="M5.20349 64.5009L63.9999 5.70444L122.796 64.5009L63.9999 123.297L5.20349 64.5009ZM64 112.904L112.403 64.5009L64 16.0983L15.5973 64.5009L64 112.904Z" fill="#FF4E4E"/>
<path id="Rectangle 4" d="M4.07212 63.3695L2.94075 64.5009L4.07212 65.6323L62.8686 124.429L63.9999 125.56L65.1313 124.429L123.928 65.6323L125.059 64.5009L123.928 63.3695L65.1313 4.57307L63.9999 3.4417L62.8686 4.57307L4.07212 63.3695Z" stroke="black" stroke-width="3.2"/>
<path id="Rectangle 5" d="M1.13137 64.5L64 1.63137L126.869 64.5L64 127.369L1.13137 64.5Z" stroke="white" stroke-width="1.6"/>
<path id="Rectangle 6" d="M17.8604 64.5013L64 18.3617L110.14 64.5013L64 110.641L17.8604 64.5013Z" stroke="black" stroke-width="3.2"/>
<path id="Vector (Stroke)" d="M59.1482 47.1051L60.2794 45.9735L59.1478 44.8424L55.6253 41.3211L54.4937 40.1899L53.3625 41.3215L47.3515 47.3347C38.0179 56.6716 38.0179 71.8092 47.3515 81.1461C56.6859 90.4838 71.8205 90.4838 81.1549 81.1461L87.1802 75.1187L88.3114 73.9871L87.1798 72.8559L83.6573 69.3347L82.5257 68.2035L81.3945 69.3351L75.3693 75.3625C69.3525 81.3814 59.6725 81.5016 53.5094 75.723L61.7327 67.4968V75.4096V79.2734L64.4643 76.5408L83.9272 57.071L85.0584 55.9394L83.9268 54.8082L80.4043 51.287L79.2727 50.1558L78.1415 51.2874L69.9135 59.5184V51.6055V47.7418L67.1819 50.4743L49.1264 68.5363C47.6261 63.2299 48.9652 57.2917 53.1372 53.1183L59.1482 47.1051Z" fill="#FF4E4E" stroke="black" stroke-width="3.2"/>
</g>
</svg>
