<svg width="80" height="81" viewBox="0 0 80 81" fill="none" xmlns="http://www.w3.org/2000/svg">
<g clip-path="url(#clip0_55_1109)">
<g filter="url(#filter0_d_55_1109)">
<mask id="path-1-outside-1_55_1109" maskUnits="userSpaceOnUse" x="0" y="18.5" width="80" height="45" fill="black">
<rect fill="white" y="18.5" width="80" height="45"/>
<path fill-rule="evenodd" clip-rule="evenodd" d="M37 23.5C37 21.8431 38.3431 20.5 40 20.5C41.6569 20.5 43 21.8431 43 23.5V37.7368L76.1574 40.3545C77.1977 40.4367 78 41.3048 78 42.3483V43.5C78 44.0523 77.5523 44.5 77 44.5H43V52.1923L53 54.5V56.5H42.25L40.9363 60.0031C40.6119 60.8683 39.3881 60.8683 39.0637 60.0031L37.75 56.5H27V54.5L37 52.1923V44.5H3C2.44772 44.5 2 44.0523 2 43.5V42.3483C2 41.3048 2.80231 40.4367 3.8426 40.3545L37 37.7368V23.5Z"/>
</mask>
<path fill-rule="evenodd" clip-rule="evenodd" d="M37 23.5C37 21.8431 38.3431 20.5 40 20.5C41.6569 20.5 43 21.8431 43 23.5V37.7368L76.1574 40.3545C77.1977 40.4367 78 41.3048 78 42.3483V43.5C78 44.0523 77.5523 44.5 77 44.5H43V52.1923L53 54.5V56.5H42.25L40.9363 60.0031C40.6119 60.8683 39.3881 60.8683 39.0637 60.0031L37.75 56.5H27V54.5L37 52.1923V44.5H3C2.44772 44.5 2 44.0523 2 43.5V42.3483C2 41.3048 2.80231 40.4367 3.8426 40.3545L37 37.7368V23.5Z" fill="#141414"/>
<path d="M43 37.7368H41V39.5852L42.8426 39.7306L43 37.7368ZM76.1574 40.3545L76.3148 38.3607H76.3148L76.1574 40.3545ZM43 44.5V42.5H41V44.5H43ZM43 52.1923H41V53.7833L42.5503 54.1411L43 52.1923ZM53 54.5H55V52.909L53.4497 52.5512L53 54.5ZM53 56.5V58.5H55V56.5H53ZM42.25 56.5V54.5H40.864L40.3773 55.7978L42.25 56.5ZM40.9363 60.0031L42.809 60.7054V60.7054L40.9363 60.0031ZM39.0637 60.0031L40.9363 59.3009L40.9363 59.3009L39.0637 60.0031ZM37.75 56.5L39.6227 55.7978L39.136 54.5H37.75V56.5ZM27 56.5H25V58.5H27V56.5ZM27 54.5L26.5503 52.5512L25 52.909V54.5H27ZM37 52.1923L37.4497 54.1411L39 53.7833V52.1923H37ZM37 44.5H39V42.5H37V44.5ZM3.8426 40.3545L3.68519 38.3607H3.68519L3.8426 40.3545ZM37 37.7368L37.1574 39.7306L39 39.5852V37.7368H37ZM40 18.5C37.2386 18.5 35 20.7386 35 23.5H39C39 22.9477 39.4477 22.5 40 22.5V18.5ZM45 23.5C45 20.7386 42.7614 18.5 40 18.5V22.5C40.5523 22.5 41 22.9477 41 23.5H45ZM45 37.7368V23.5H41V37.7368H45ZM76.3148 38.3607L43.1574 35.743L42.8426 39.7306L76 42.3483L76.3148 38.3607ZM80 42.3483C80 40.2613 78.3954 38.525 76.3148 38.3607L76 42.3483H80ZM80 43.5V42.3483H76V43.5H80ZM77 46.5C78.6569 46.5 80 45.1569 80 43.5H76C76 42.9477 76.4477 42.5 77 42.5V46.5ZM43 46.5H77V42.5H43V46.5ZM45 52.1923V44.5H41V52.1923H45ZM53.4497 52.5512L43.4497 50.2435L42.5503 54.1411L52.5503 56.4488L53.4497 52.5512ZM55 56.5V54.5H51V56.5H55ZM42.25 58.5H53V54.5H42.25V58.5ZM42.809 60.7054L44.1227 57.2022L40.3773 55.7978L39.0637 59.3009L42.809 60.7054ZM37.191 60.7054C38.1643 63.3009 41.8357 63.3009 42.809 60.7054L39.0637 59.3009C39.3881 58.4357 40.6119 58.4357 40.9363 59.3009L37.191 60.7054ZM35.8773 57.2022L37.191 60.7054L40.9363 59.3009L39.6227 55.7978L35.8773 57.2022ZM27 58.5H37.75V54.5H27V58.5ZM25 54.5V56.5H29V54.5H25ZM36.5503 50.2435L26.5503 52.5512L27.4497 56.4488L37.4497 54.1411L36.5503 50.2435ZM35 44.5V52.1923H39V44.5H35ZM3 46.5H37V42.5H3V46.5ZM0 43.5C0 45.1569 1.34315 46.5 3 46.5V42.5C3.55228 42.5 4 42.9477 4 43.5H0ZM0 42.3483V43.5H4V42.3483H0ZM3.68519 38.3607C1.60461 38.525 0 40.2613 0 42.3483H4H4L3.68519 38.3607ZM36.8426 35.743L3.68519 38.3607L4 42.3483L37.1574 39.7306L36.8426 35.743ZM35 23.5V37.7368H39V23.5H35Z" fill="white" mask="url(#path-1-outside-1_55_1109)"/>
</g>
<path d="M15 39.481L15 44.5L2.99998 44.5001C2.44769 44.5001 1.99998 44.0524 1.99998 43.5001L1.99998 42.3494C1.99998 41.3055 2.80291 40.4371 3.84367 40.3555L15 39.481Z" fill="#0066FF"/>
<path d="M65 39.481L65 44.5L77 44.5001C77.5523 44.5001 78 44.0524 78 43.5001L78 42.3494C78 41.3055 77.1971 40.4371 76.1563 40.3555L65 39.481Z" fill="#0066FF"/>
</g>
<defs>
<filter id="filter0_d_55_1109" x="-8" y="12.5" width="96" height="60.152" filterUnits="userSpaceOnUse" color-interpolation-filters="sRGB">
<feFlood flood-opacity="0" result="BackgroundImageFix"/>
<feColorMatrix in="SourceAlpha" type="matrix" values="0 0 0 0 0 0 0 0 0 0 0 0 0 0 0 0 0 0 127 0" result="hardAlpha"/>
<feOffset dy="2"/>
<feGaussianBlur stdDeviation="4"/>
<feComposite in2="hardAlpha" operator="out"/>
<feColorMatrix type="matrix" values="0 0 0 0 0 0 0 0 0 0 0 0 0 0 0 0 0 0 1 0"/>
<feBlend mode="normal" in2="BackgroundImageFix" result="effect1_dropShadow_55_1109"/>
<feBlend mode="normal" in="SourceGraphic" in2="effect1_dropShadow_55_1109" result="shape"/>
</filter>
<clipPath id="clip0_55_1109">
<rect width="80" height="80" fill="white" transform="translate(0 0.5)"/>
</clipPath>
</defs>
</svg>
