<svg width="670" height="196" viewBox="0 0 670 196" fill="none" xmlns="http://www.w3.org/2000/svg">
<g filter="url(#filter0_ddd_477_4525)">
<path d="M168 0H100L126.711 67.877C133.388 84.8447 149.766 96 168 96V0Z" fill="#323235"/>
<rect x="168" width="334" height="96" fill="#323235"/>
<path d="M502 0H570L543.289 67.877C536.612 84.8447 520.234 96 502 96V0Z" fill="#323235"/>
</g>
<path d="M184.414 33.5625H193.262C195.15 33.5625 196.758 33.888 198.086 34.5391C199.414 35.1901 200.423 36.1536 201.113 37.4297C201.816 38.7057 202.168 40.2747 202.168 42.1367C202.168 43.6211 201.953 44.9102 201.523 46.0039C201.107 47.0846 200.508 47.9896 199.727 48.7188C198.958 49.4479 198.027 50.0143 196.934 50.418L195.352 51.3164H188.027L188.008 46.9609H193.145C193.991 46.9609 194.694 46.7721 195.254 46.3945C195.827 46.0169 196.25 45.4961 196.523 44.832C196.81 44.1549 196.953 43.3802 196.953 42.5078C196.953 41.5573 196.823 40.7435 196.562 40.0664C196.315 39.3763 195.918 38.849 195.371 38.4844C194.837 38.1198 194.134 37.9375 193.262 37.9375H189.648V62H184.414V33.5625ZM197.5 62L192.168 49.2656H197.656L203.086 61.7266V62H197.5ZM222.422 57.6445V62H210.078V57.6445H222.422ZM211.582 33.5625V62H206.348V33.5625H211.582ZM220.762 45.2422V49.4805H210.078V45.2422H220.762ZM222.344 33.5625V37.9375H210.078V33.5625H222.344ZM236.094 38.0547L229.59 62H224.082L233.047 33.5625H236.484L236.094 38.0547ZM241.23 62L234.727 38.0547L234.277 33.5625H237.754L246.758 62H241.23ZM241.406 51.4141V55.7695H228.359V51.4141H241.406ZM263.066 52.625H268.281C268.19 54.7214 267.76 56.4987 266.992 57.957C266.237 59.4023 265.15 60.5026 263.73 61.2578C262.324 62.013 260.612 62.3906 258.594 62.3906C257.057 62.3906 255.684 62.1237 254.473 61.5898C253.262 61.043 252.233 60.2552 251.387 59.2266C250.553 58.1979 249.915 56.9349 249.473 55.4375C249.043 53.9271 248.828 52.2018 248.828 50.2617V45.3203C248.828 43.3802 249.056 41.6549 249.512 40.1445C249.967 38.6341 250.618 37.3581 251.465 36.3164C252.324 35.2747 253.366 34.487 254.59 33.9531C255.814 33.4193 257.194 33.1523 258.73 33.1523C260.762 33.1523 262.461 33.5365 263.828 34.3047C265.195 35.0729 266.25 36.1992 266.992 37.6836C267.734 39.1549 268.171 40.9518 268.301 43.0742H263.086C263.034 41.694 262.865 40.6003 262.578 39.793C262.292 38.9727 261.842 38.3867 261.23 38.0352C260.618 37.6836 259.785 37.5078 258.73 37.5078C257.91 37.5078 257.201 37.6576 256.602 37.957C256.003 38.2565 255.514 38.7253 255.137 39.3633C254.759 39.9883 254.479 40.7891 254.297 41.7656C254.115 42.7422 254.023 43.9141 254.023 45.2812V50.2617C254.023 51.5768 254.102 52.7227 254.258 53.6992C254.414 54.6758 254.661 55.4896 255 56.1406C255.352 56.7786 255.82 57.2604 256.406 57.5859C256.992 57.8984 257.721 58.0547 258.594 58.0547C259.648 58.0547 260.488 57.8984 261.113 57.5859C261.738 57.2604 262.201 56.707 262.5 55.9258C262.812 55.1315 263.001 54.0312 263.066 52.625ZM282.363 33.5625V62H277.168V33.5625H282.363ZM289.531 33.5625V37.9375H270.117V33.5625H289.531ZM298.496 33.5625V62H293.301V33.5625H298.496ZM323.32 45.5156V50.3008C323.32 52.306 323.086 54.0638 322.617 55.5742C322.148 57.0846 321.471 58.3477 320.586 59.3633C319.701 60.3659 318.639 61.1211 317.402 61.6289C316.165 62.1367 314.798 62.3906 313.301 62.3906C311.79 62.3906 310.417 62.1367 309.18 61.6289C307.943 61.1211 306.875 60.3659 305.977 59.3633C305.091 58.3477 304.401 57.0846 303.906 55.5742C303.424 54.0638 303.184 52.306 303.184 50.3008V45.5156C303.184 43.4714 303.424 41.681 303.906 40.1445C304.388 38.6081 305.072 37.3255 305.957 36.2969C306.855 35.2682 307.923 34.4935 309.16 33.9727C310.397 33.4388 311.764 33.1719 313.262 33.1719C314.772 33.1719 316.139 33.4388 317.363 33.9727C318.6 34.4935 319.661 35.2682 320.547 36.2969C321.445 37.3255 322.129 38.6081 322.598 40.1445C323.079 41.681 323.32 43.4714 323.32 45.5156ZM318.125 50.3008V45.4766C318.125 44.0833 318.021 42.8854 317.812 41.8828C317.604 40.8802 317.292 40.0664 316.875 39.4414C316.458 38.8034 315.944 38.3346 315.332 38.0352C314.733 37.7357 314.043 37.5859 313.262 37.5859C312.467 37.5859 311.764 37.7357 311.152 38.0352C310.553 38.3346 310.046 38.8034 309.629 39.4414C309.225 40.0664 308.919 40.8802 308.711 41.8828C308.503 42.8854 308.398 44.0833 308.398 45.4766V50.3008C308.398 51.668 308.503 52.8398 308.711 53.8164C308.919 54.793 309.232 55.5872 309.648 56.1992C310.078 56.8112 310.592 57.2669 311.191 57.5664C311.803 57.8529 312.507 57.9961 313.301 57.9961C314.082 57.9961 314.772 57.8529 315.371 57.5664C315.983 57.2669 316.491 56.8112 316.895 56.1992C317.311 55.5872 317.617 54.793 317.812 53.8164C318.021 52.8398 318.125 51.668 318.125 50.3008ZM347.422 33.5625V62H342.324L332.832 43.2695V62H327.832V33.5625H332.852L342.422 52.4688V33.5625H347.422ZM381.211 33.5625V62H376.113L366.621 43.2695V62H361.621V33.5625H366.641L376.211 52.4688V33.5625H381.211ZM402.266 57.6445V62H389.922V57.6445H402.266ZM391.426 33.5625V62H386.191V33.5625H391.426ZM400.605 45.2422V49.4805H389.922V45.2422H400.605ZM402.188 33.5625V37.9375H389.922V33.5625H402.188ZM421.953 57.6445V62H409.609V57.6445H421.953ZM411.113 33.5625V62H405.879V33.5625H411.113ZM420.293 45.2422V49.4805H409.609V45.2422H420.293ZM421.875 33.5625V37.9375H409.609V33.5625H421.875ZM432.773 62H427.793L427.832 57.6445H432.773C434.219 57.6445 435.358 57.3841 436.191 56.8633C437.038 56.3294 437.637 55.5026 437.988 54.3828C438.353 53.263 438.535 51.8177 438.535 50.0469V45.4961C438.535 44.1419 438.438 42.9896 438.242 42.0391C438.047 41.0755 437.728 40.2943 437.285 39.6953C436.842 39.0964 436.263 38.6536 435.547 38.3672C434.831 38.0807 433.945 37.9375 432.891 37.9375H427.695V33.5625H432.891C434.531 33.5625 436.016 33.8294 437.344 34.3633C438.672 34.8841 439.811 35.6523 440.762 36.668C441.725 37.6836 442.461 38.9401 442.969 40.4375C443.477 41.9219 443.73 43.6211 443.73 45.5352V50.0469C443.73 51.9609 443.477 53.6602 442.969 55.1445C442.461 56.6289 441.725 57.8789 440.762 58.8945C439.811 59.9102 438.659 60.6849 437.305 61.2188C435.964 61.7396 434.453 62 432.773 62ZM430.801 33.5625V62H425.566V33.5625H430.801ZM464.297 57.6445V62H451.953V57.6445H464.297ZM453.457 33.5625V62H448.223V33.5625H453.457ZM462.637 45.2422V49.4805H451.953V45.2422H462.637ZM464.219 33.5625V37.9375H451.953V33.5625H464.219ZM475.117 62H470.137L470.176 57.6445H475.117C476.562 57.6445 477.702 57.3841 478.535 56.8633C479.382 56.3294 479.98 55.5026 480.332 54.3828C480.697 53.263 480.879 51.8177 480.879 50.0469V45.4961C480.879 44.1419 480.781 42.9896 480.586 42.0391C480.391 41.0755 480.072 40.2943 479.629 39.6953C479.186 39.0964 478.607 38.6536 477.891 38.3672C477.174 38.0807 476.289 37.9375 475.234 37.9375H470.039V33.5625H475.234C476.875 33.5625 478.359 33.8294 479.688 34.3633C481.016 34.8841 482.155 35.6523 483.105 36.668C484.069 37.6836 484.805 38.9401 485.312 40.4375C485.82 41.9219 486.074 43.6211 486.074 45.5352V50.0469C486.074 51.9609 485.82 53.6602 485.312 55.1445C484.805 56.6289 484.069 57.8789 483.105 58.8945C482.155 59.9102 481.003 60.6849 479.648 61.2188C478.307 61.7396 476.797 62 475.117 62ZM473.145 33.5625V62H467.91V33.5625H473.145Z" fill="#19DEBB"/>
<defs>
<filter id="filter0_ddd_477_4525" x="0" y="-100" width="670" height="296" filterUnits="userSpaceOnUse" color-interpolation-filters="sRGB">
<feFlood flood-opacity="0" result="BackgroundImageFix"/>
<feColorMatrix in="SourceAlpha" type="matrix" values="0 0 0 0 0 0 0 0 0 0 0 0 0 0 0 0 0 0 127 0" result="hardAlpha"/>
<feOffset dy="1"/>
<feGaussianBlur stdDeviation="18.25"/>
<feComposite in2="hardAlpha" operator="out"/>
<feColorMatrix type="matrix" values="0 0 0 0 0 0 0 0 0 0 0 0 0 0 0 0 0 0 1 0"/>
<feBlend mode="normal" in2="BackgroundImageFix" result="effect1_dropShadow_477_4525"/>
<feColorMatrix in="SourceAlpha" type="matrix" values="0 0 0 0 0 0 0 0 0 0 0 0 0 0 0 0 0 0 127 0" result="hardAlpha"/>
<feOffset/>
<feGaussianBlur stdDeviation="50"/>
<feComposite in2="hardAlpha" operator="out"/>
<feColorMatrix type="matrix" values="0 0 0 0 0.0980392 0 0 0 0 0.870588 0 0 0 0 0.733333 0 0 0 1 0"/>
<feBlend mode="normal" in2="effect1_dropShadow_477_4525" result="effect2_dropShadow_477_4525"/>
<feColorMatrix in="SourceAlpha" type="matrix" values="0 0 0 0 0 0 0 0 0 0 0 0 0 0 0 0 0 0 127 0" result="hardAlpha"/>
<feOffset/>
<feGaussianBlur stdDeviation="10"/>
<feComposite in2="hardAlpha" operator="out"/>
<feColorMatrix type="matrix" values="0 0 0 0 0.0980392 0 0 0 0 0.870588 0 0 0 0 0.733333 0 0 0 1 0"/>
<feBlend mode="normal" in2="effect2_dropShadow_477_4525" result="effect3_dropShadow_477_4525"/>
<feBlend mode="normal" in="SourceGraphic" in2="effect3_dropShadow_477_4525" result="shape"/>
</filter>
</defs>
</svg>
