<svg width="194" height="91" viewBox="0 0 194 91" fill="none" xmlns="http://www.w3.org/2000/svg">
<g filter="url(#filter0_d_243_3648)">
<mask id="path-1-outside-1_243_3648" maskUnits="userSpaceOnUse" x="10" y="63" width="102" height="17" fill="black">
<rect fill="white" x="10" y="63" width="102" height="17"/>
<path fill-rule="evenodd" clip-rule="evenodd" d="M11 64V76V78V79H111V76H14L14 64H11Z"/>
</mask>
<path fill-rule="evenodd" clip-rule="evenodd" d="M11 64V76V78V79H111V76H14L14 64H11Z" fill="white"/>
<path d="M11 64V63H10V64H11ZM11 79H10V80H11V79ZM111 79V80H112V79H111ZM111 76H112V75H111V76ZM14 76H13V77H14V76ZM14 64L15 64V63H14V64ZM12 76V64H10V76H12ZM12 78V76H10V78H12ZM12 79V78H10V79H12ZM111 78H11V80H111V78ZM110 76V79H112V76H110ZM14 77H111V75H14V77ZM13 64L13 76H15L15 64L13 64ZM11 65H14V63H11V65Z" fill="black" mask="url(#path-1-outside-1_243_3648)"/>
</g>
<g filter="url(#filter1_d_243_3648)">
<mask id="path-3-outside-2_243_3648" maskUnits="userSpaceOnUse" x="53" y="51" width="53" height="21" fill="black">
<rect fill="white" x="53" y="51" width="53" height="21"/>
<path d="M60.7305 52.8789V70H58V56.3008L54.6016 57.707V55.3281L60.4023 52.8789H60.7305ZM75.4961 60.0391V62.8281C75.4961 64.1641 75.3789 65.3047 75.1445 66.25C74.918 67.1875 74.5938 67.9492 74.1719 68.5352C73.7578 69.1211 73.2578 69.5508 72.6719 69.8242C72.0938 70.0977 71.4492 70.2344 70.7383 70.2344C70.1758 70.2344 69.6484 70.1484 69.1562 69.9766C68.6641 69.8047 68.2188 69.5352 67.8203 69.168C67.4297 68.8008 67.0938 68.3281 66.8125 67.75C66.5391 67.1641 66.3242 66.4648 66.168 65.6523C66.0195 64.8398 65.9453 63.8984 65.9453 62.8281V60.0391C65.9453 58.6953 66.0625 57.5625 66.2969 56.6406C66.5312 55.7109 66.8594 54.957 67.2812 54.3789C67.7031 53.793 68.2031 53.3672 68.7812 53.1016C69.3672 52.8359 70.0156 52.7031 70.7266 52.7031C71.2891 52.7031 71.8164 52.7891 72.3086 52.9609C72.8008 53.125 73.2422 53.3867 73.6328 53.7461C74.0234 54.1055 74.3594 54.5742 74.6406 55.1523C74.9219 55.7227 75.1328 56.4141 75.2734 57.2266C75.4219 58.0312 75.4961 58.9688 75.4961 60.0391ZM72.7773 63.2383V59.6055C72.7773 58.9336 72.7461 58.3398 72.6836 57.8242C72.6211 57.3086 72.5352 56.8711 72.4258 56.5117C72.3242 56.1523 72.1875 55.8633 72.0156 55.6445C71.8438 55.418 71.6484 55.2539 71.4297 55.1523C71.2188 55.043 70.9844 54.9883 70.7266 54.9883C70.4062 54.9883 70.1172 55.0703 69.8594 55.2344C69.6094 55.3984 69.3945 55.6641 69.2148 56.0312C69.043 56.3906 68.9102 56.8672 68.8164 57.4609C68.7227 58.0469 68.6758 58.7617 68.6758 59.6055V63.2383C68.6758 63.918 68.707 64.5156 68.7695 65.0312C68.832 65.5469 68.9219 65.9922 69.0391 66.3672C69.1562 66.7344 69.2969 67.0352 69.4609 67.2695C69.625 67.4961 69.8125 67.6641 70.0234 67.7734C70.2422 67.8828 70.4805 67.9375 70.7383 67.9375C71.0664 67.9375 71.3555 67.8516 71.6055 67.6797C71.8633 67.5078 72.0781 67.2383 72.25 66.8711C72.4219 66.4961 72.5508 66.0078 72.6367 65.4062C72.7305 64.8047 72.7773 64.082 72.7773 63.2383ZM86.3711 59.8984V70H83.6406V57.3203H86.207L86.3711 59.8984ZM85.9258 63.2031H85C84.9844 62.3203 85.0625 61.5078 85.2344 60.7656C85.4141 60.0234 85.6797 59.375 86.0312 58.8203C86.3906 58.2656 86.8398 57.8398 87.3789 57.543C87.918 57.2383 88.5469 57.0859 89.2656 57.0859C89.7422 57.0859 90.1797 57.1719 90.5781 57.3438C90.9844 57.5078 91.3359 57.7695 91.6328 58.1289C91.9375 58.4883 92.1719 58.9492 92.3359 59.5117C92.5 60.0742 92.582 60.7539 92.582 61.5508V70H89.8516V61.8086C89.8516 61.1992 89.7812 60.7227 89.6406 60.3789C89.5078 60.0273 89.3125 59.7773 89.0547 59.6289C88.7969 59.4805 88.4844 59.4062 88.1172 59.4062C87.7188 59.4062 87.3789 59.5078 87.0977 59.7109C86.8164 59.9062 86.5898 60.1797 86.418 60.5312C86.2461 60.875 86.1211 61.2773 86.043 61.7383C85.9648 62.1914 85.9258 62.6797 85.9258 63.2031ZM92.4062 62.4766L91.1289 62.7695C91.1133 61.9961 91.1914 61.2695 91.3633 60.5898C91.5352 59.9023 91.793 59.2969 92.1367 58.7734C92.4883 58.25 92.9258 57.8398 93.4492 57.543C93.9805 57.2383 94.5938 57.0859 95.2891 57.0859C95.8359 57.0859 96.3242 57.1758 96.7539 57.3555C97.1836 57.5273 97.5508 57.8008 97.8555 58.1758C98.1602 58.5508 98.3906 59.0391 98.5469 59.6406C98.7109 60.2344 98.793 60.957 98.793 61.8086V70H96.0508V61.7969C96.0508 61.1641 95.9805 60.6758 95.8398 60.332C95.707 59.9883 95.5117 59.75 95.2539 59.6172C94.9961 59.4766 94.6875 59.4062 94.3281 59.4062C94.0156 59.4062 93.7383 59.4883 93.4961 59.6523C93.2617 59.8086 93.0625 60.0273 92.8984 60.3086C92.7344 60.5898 92.6094 60.918 92.5234 61.293C92.4453 61.6602 92.4062 62.0547 92.4062 62.4766ZM104.453 57.3203V70H101.723V57.3203H104.453ZM101.582 54.0039C101.582 53.5664 101.715 53.2031 101.98 52.9141C102.246 52.6172 102.617 52.4688 103.094 52.4688C103.57 52.4688 103.941 52.6133 104.207 52.9023C104.473 53.1914 104.605 53.5547 104.605 53.9922C104.605 54.4219 104.473 54.7812 104.207 55.0703C103.941 55.3594 103.57 55.5039 103.094 55.5039C102.617 55.5039 102.246 55.3594 101.98 55.0703C101.715 54.7812 101.582 54.4258 101.582 54.0039Z"/>
</mask>
<path d="M60.7305 52.8789V70H58V56.3008L54.6016 57.707V55.3281L60.4023 52.8789H60.7305ZM75.4961 60.0391V62.8281C75.4961 64.1641 75.3789 65.3047 75.1445 66.25C74.918 67.1875 74.5938 67.9492 74.1719 68.5352C73.7578 69.1211 73.2578 69.5508 72.6719 69.8242C72.0938 70.0977 71.4492 70.2344 70.7383 70.2344C70.1758 70.2344 69.6484 70.1484 69.1562 69.9766C68.6641 69.8047 68.2188 69.5352 67.8203 69.168C67.4297 68.8008 67.0938 68.3281 66.8125 67.75C66.5391 67.1641 66.3242 66.4648 66.168 65.6523C66.0195 64.8398 65.9453 63.8984 65.9453 62.8281V60.0391C65.9453 58.6953 66.0625 57.5625 66.2969 56.6406C66.5312 55.7109 66.8594 54.957 67.2812 54.3789C67.7031 53.793 68.2031 53.3672 68.7812 53.1016C69.3672 52.8359 70.0156 52.7031 70.7266 52.7031C71.2891 52.7031 71.8164 52.7891 72.3086 52.9609C72.8008 53.125 73.2422 53.3867 73.6328 53.7461C74.0234 54.1055 74.3594 54.5742 74.6406 55.1523C74.9219 55.7227 75.1328 56.4141 75.2734 57.2266C75.4219 58.0312 75.4961 58.9688 75.4961 60.0391ZM72.7773 63.2383V59.6055C72.7773 58.9336 72.7461 58.3398 72.6836 57.8242C72.6211 57.3086 72.5352 56.8711 72.4258 56.5117C72.3242 56.1523 72.1875 55.8633 72.0156 55.6445C71.8438 55.418 71.6484 55.2539 71.4297 55.1523C71.2188 55.043 70.9844 54.9883 70.7266 54.9883C70.4062 54.9883 70.1172 55.0703 69.8594 55.2344C69.6094 55.3984 69.3945 55.6641 69.2148 56.0312C69.043 56.3906 68.9102 56.8672 68.8164 57.4609C68.7227 58.0469 68.6758 58.7617 68.6758 59.6055V63.2383C68.6758 63.918 68.707 64.5156 68.7695 65.0312C68.832 65.5469 68.9219 65.9922 69.0391 66.3672C69.1562 66.7344 69.2969 67.0352 69.4609 67.2695C69.625 67.4961 69.8125 67.6641 70.0234 67.7734C70.2422 67.8828 70.4805 67.9375 70.7383 67.9375C71.0664 67.9375 71.3555 67.8516 71.6055 67.6797C71.8633 67.5078 72.0781 67.2383 72.25 66.8711C72.4219 66.4961 72.5508 66.0078 72.6367 65.4062C72.7305 64.8047 72.7773 64.082 72.7773 63.2383ZM86.3711 59.8984V70H83.6406V57.3203H86.207L86.3711 59.8984ZM85.9258 63.2031H85C84.9844 62.3203 85.0625 61.5078 85.2344 60.7656C85.4141 60.0234 85.6797 59.375 86.0312 58.8203C86.3906 58.2656 86.8398 57.8398 87.3789 57.543C87.918 57.2383 88.5469 57.0859 89.2656 57.0859C89.7422 57.0859 90.1797 57.1719 90.5781 57.3438C90.9844 57.5078 91.3359 57.7695 91.6328 58.1289C91.9375 58.4883 92.1719 58.9492 92.3359 59.5117C92.5 60.0742 92.582 60.7539 92.582 61.5508V70H89.8516V61.8086C89.8516 61.1992 89.7812 60.7227 89.6406 60.3789C89.5078 60.0273 89.3125 59.7773 89.0547 59.6289C88.7969 59.4805 88.4844 59.4062 88.1172 59.4062C87.7188 59.4062 87.3789 59.5078 87.0977 59.7109C86.8164 59.9062 86.5898 60.1797 86.418 60.5312C86.2461 60.875 86.1211 61.2773 86.043 61.7383C85.9648 62.1914 85.9258 62.6797 85.9258 63.2031ZM92.4062 62.4766L91.1289 62.7695C91.1133 61.9961 91.1914 61.2695 91.3633 60.5898C91.5352 59.9023 91.793 59.2969 92.1367 58.7734C92.4883 58.25 92.9258 57.8398 93.4492 57.543C93.9805 57.2383 94.5938 57.0859 95.2891 57.0859C95.8359 57.0859 96.3242 57.1758 96.7539 57.3555C97.1836 57.5273 97.5508 57.8008 97.8555 58.1758C98.1602 58.5508 98.3906 59.0391 98.5469 59.6406C98.7109 60.2344 98.793 60.957 98.793 61.8086V70H96.0508V61.7969C96.0508 61.1641 95.9805 60.6758 95.8398 60.332C95.707 59.9883 95.5117 59.75 95.2539 59.6172C94.9961 59.4766 94.6875 59.4062 94.3281 59.4062C94.0156 59.4062 93.7383 59.4883 93.4961 59.6523C93.2617 59.8086 93.0625 60.0273 92.8984 60.3086C92.7344 60.5898 92.6094 60.918 92.5234 61.293C92.4453 61.6602 92.4062 62.0547 92.4062 62.4766ZM104.453 57.3203V70H101.723V57.3203H104.453ZM101.582 54.0039C101.582 53.5664 101.715 53.2031 101.98 52.9141C102.246 52.6172 102.617 52.4688 103.094 52.4688C103.57 52.4688 103.941 52.6133 104.207 52.9023C104.473 53.1914 104.605 53.5547 104.605 53.9922C104.605 54.4219 104.473 54.7812 104.207 55.0703C103.941 55.3594 103.57 55.5039 103.094 55.5039C102.617 55.5039 102.246 55.3594 101.98 55.0703C101.715 54.7812 101.582 54.4258 101.582 54.0039Z" fill="white"/>
<path d="M60.7305 52.8789H61.7305V51.8789H60.7305V52.8789ZM60.7305 70V71H61.7305V70H60.7305ZM58 70H57V71H58V70ZM58 56.3008H59V54.8048L57.6176 55.3768L58 56.3008ZM54.6016 57.707H53.6016V59.2031L54.9839 58.631L54.6016 57.707ZM54.6016 55.3281L54.2126 54.4069L53.6016 54.6649V55.3281H54.6016ZM60.4023 52.8789V51.8789H60.1999L60.0134 51.9577L60.4023 52.8789ZM59.7305 52.8789V70H61.7305V52.8789H59.7305ZM60.7305 69H58V71H60.7305V69ZM59 70V56.3008H57V70H59ZM57.6176 55.3768L54.2192 56.783L54.9839 58.631L58.3824 57.2248L57.6176 55.3768ZM55.6016 57.707V55.3281H53.6016V57.707H55.6016ZM54.9905 56.2494L60.7913 53.8002L60.0134 51.9577L54.2126 54.4069L54.9905 56.2494ZM60.4023 53.8789H60.7305V51.8789H60.4023V53.8789ZM75.1445 66.25L74.1739 66.0093L74.1725 66.0151L75.1445 66.25ZM74.1719 68.5352L73.3603 67.9508L73.3552 67.958L74.1719 68.5352ZM72.6719 69.8242L72.249 68.918L72.2443 68.9202L72.6719 69.8242ZM67.8203 69.168L67.1354 69.8966L67.1426 69.9033L67.8203 69.168ZM66.8125 67.75L65.9063 68.1729L65.9097 68.1802L65.9133 68.1875L66.8125 67.75ZM66.168 65.6523L65.1842 65.8321L65.186 65.8412L66.168 65.6523ZM66.2969 56.6406L67.266 56.887L67.2665 56.8851L66.2969 56.6406ZM67.2812 54.3789L68.0891 54.9684L68.0928 54.9632L67.2812 54.3789ZM68.7812 53.1016L68.3684 52.1908L68.3638 52.1929L68.7812 53.1016ZM72.3086 52.9609L71.9789 53.905L71.9856 53.9074L71.9924 53.9096L72.3086 52.9609ZM74.6406 55.1523L73.7414 55.5898L73.7438 55.5946L74.6406 55.1523ZM75.2734 57.2266L74.288 57.3971L74.29 57.408L75.2734 57.2266ZM72.4258 56.5117L71.4635 56.7837L71.4662 56.7933L71.4691 56.8029L72.4258 56.5117ZM72.0156 55.6445L71.2189 56.2489L71.2241 56.2557L71.2293 56.2624L72.0156 55.6445ZM71.4297 55.1523L70.9694 56.0401L70.9888 56.0502L71.0086 56.0594L71.4297 55.1523ZM69.8594 55.2344L69.3224 54.3906L69.3107 54.3983L69.8594 55.2344ZM69.2148 56.0312L68.3166 55.5917L68.3127 55.5998L69.2148 56.0312ZM68.8164 57.4609L69.8038 57.6189L69.8042 57.6169L68.8164 57.4609ZM69.0391 66.3672L68.0846 66.6655L68.0864 66.6712L69.0391 66.3672ZM69.4609 67.2695L68.6417 67.843L68.6463 67.8496L68.651 67.856L69.4609 67.2695ZM70.0234 67.7734L69.5631 68.6612L69.5696 68.6646L69.5762 68.6679L70.0234 67.7734ZM71.6055 67.6797L71.0508 66.8476L71.0448 66.8516L71.0389 66.8556L71.6055 67.6797ZM72.25 66.8711L73.1557 67.295L73.1591 67.2877L72.25 66.8711ZM72.6367 65.4062L71.6486 65.2523L71.6468 65.2648L72.6367 65.4062ZM74.4961 60.0391V62.8281H76.4961V60.0391H74.4961ZM74.4961 62.8281C74.4961 64.1107 74.3831 65.1658 74.1739 66.0094L76.1151 66.4906C76.3747 65.4436 76.4961 64.2175 76.4961 62.8281H74.4961ZM74.1725 66.0151C73.9667 66.8667 73.6859 67.4987 73.3603 67.9509L74.9834 69.1195C75.5016 68.3997 75.8692 67.5083 76.1166 66.4849L74.1725 66.0151ZM73.3552 67.958C73.0303 68.4178 72.6605 68.726 72.249 68.918L73.0948 70.7304C73.8551 70.3756 74.4853 69.8243 74.9885 69.1123L73.3552 67.958ZM72.2443 68.9202C71.8141 69.1237 71.318 69.2344 70.7383 69.2344V71.2344C71.5804 71.2344 72.3734 71.0716 73.0994 70.7282L72.2443 68.9202ZM70.7383 69.2344C70.2792 69.2344 69.8641 69.1645 69.4859 69.0325L68.8266 70.9207C69.4328 71.1324 70.0724 71.2344 70.7383 71.2344V69.2344ZM69.4859 69.0325C69.1279 68.9074 68.8 68.7109 68.498 68.4326L67.1426 69.9033C67.6375 70.3594 68.2002 70.7019 68.8266 70.9207L69.4859 69.0325ZM68.5052 68.4393C68.2188 68.1701 67.9501 67.8026 67.7117 67.3125L65.9133 68.1875C66.2374 68.8536 66.6405 69.4314 67.1354 69.8966L68.5052 68.4393ZM67.7187 67.3271C67.4882 66.8331 67.2948 66.2164 67.15 65.4635L65.186 65.8412C65.3537 66.7132 65.59 67.495 65.9063 68.1729L67.7187 67.3271ZM67.1517 65.4726C67.0167 64.7338 66.9453 63.8548 66.9453 62.8281H64.9453C64.9453 63.9421 65.0224 64.9459 65.1843 65.8321L67.1517 65.4726ZM66.9453 62.8281V60.0391H64.9453V62.8281H66.9453ZM66.9453 60.0391C66.9453 58.7472 67.0586 57.7029 67.266 56.887L65.3277 56.3942C65.0664 57.4221 64.9453 58.6434 64.9453 60.0391H66.9453ZM67.2665 56.8851C67.4796 56.0399 67.7637 55.4143 68.089 54.9684L66.4735 53.7894C65.9551 54.4998 65.5829 55.382 65.3272 56.3962L67.2665 56.8851ZM68.0928 54.9632C68.4274 54.4984 68.798 54.1943 69.1987 54.0102L68.3638 52.1929C67.6082 52.54 66.9788 53.0875 66.4697 53.7946L68.0928 54.9632ZM69.1941 54.0123C69.6373 53.8114 70.143 53.7031 70.7266 53.7031V51.7031C69.8883 51.7031 69.0971 51.8604 68.3684 52.1908L69.1941 54.0123ZM70.7266 53.7031C71.1857 53.7031 71.6008 53.773 71.9789 53.905L72.6383 52.0168C72.032 51.8051 71.3924 51.7031 70.7266 51.7031V53.7031ZM71.9924 53.9096C72.3475 54.028 72.6666 54.216 72.9558 54.482L74.3099 53.0102C73.8178 52.5575 73.2541 52.222 72.6248 52.0123L71.9924 53.9096ZM72.9558 54.482C73.2371 54.7409 73.5036 55.1011 73.7414 55.5898L75.5399 54.7149C75.2151 54.0474 74.8098 53.4701 74.3099 53.0102L72.9558 54.482ZM73.7438 55.5946C73.9723 56.058 74.1592 56.6526 74.2881 57.3971L76.2588 57.056C76.1064 56.1755 75.8715 55.3873 75.5375 54.7101L73.7438 55.5946ZM74.29 57.408C74.4247 58.1378 74.4961 59.0122 74.4961 60.0391H76.4961C76.4961 58.9253 76.4191 57.9247 76.2568 57.0452L74.29 57.408ZM73.7773 63.2383V59.6055H71.7773V63.2383H73.7773ZM73.7773 59.6055C73.7773 58.9044 73.7448 58.269 73.6763 57.7039L71.6909 57.9446C71.7474 58.4107 71.7773 58.9628 71.7773 59.6055H73.7773ZM73.6763 57.7039C73.6093 57.1506 73.5139 56.6523 73.3825 56.2206L71.4691 56.8029C71.5565 57.0899 71.6329 57.4666 71.6909 57.9446L73.6763 57.7039ZM73.3881 56.2398C73.2625 55.7953 73.077 55.3768 72.8019 55.0267L71.2293 56.2624C71.298 56.3498 71.386 56.5094 71.4635 56.7837L73.3881 56.2398ZM72.8123 55.0401C72.5595 54.7068 72.242 54.4269 71.8508 54.2453L71.0086 56.0594C71.0549 56.0809 71.128 56.1291 71.2189 56.2489L72.8123 55.0401ZM71.89 54.2646C71.525 54.0753 71.1307 53.9883 70.7266 53.9883V55.9883C70.8381 55.9883 70.9125 56.0106 70.9694 56.0401L71.89 54.2646ZM70.7266 53.9883C70.2257 53.9883 69.7487 54.1195 69.3225 54.3907L70.3962 56.078C70.4857 56.0211 70.5868 55.9883 70.7266 55.9883V53.9883ZM69.3107 54.3983C68.8655 54.6905 68.5474 55.1202 68.3166 55.5917L70.1131 56.4708C70.2417 56.2079 70.3533 56.1064 70.408 56.0704L69.3107 54.3983ZM68.3127 55.5998C68.0837 56.0787 67.9306 56.6591 67.8286 57.305L69.8042 57.6169C69.8897 57.0753 70.0023 56.7026 70.117 56.4627L68.3127 55.5998ZM67.829 57.3029C67.7242 57.9578 67.6758 58.7289 67.6758 59.6055H69.6758C69.6758 58.7945 69.7211 58.1359 69.8038 57.6189L67.829 57.3029ZM67.6758 59.6055V63.2383H69.6758V59.6055H67.6758ZM67.6758 63.2383C67.6758 63.9467 67.7082 64.586 67.7768 65.1516L69.7623 64.9109C69.7058 64.4452 69.6758 63.8893 69.6758 63.2383H67.6758ZM67.7768 65.1516C67.8444 65.7095 67.9446 66.2174 68.0846 66.6655L69.9935 66.0689C69.8992 65.767 69.8196 65.3842 69.7623 64.9109L67.7768 65.1516ZM68.0864 66.6712C68.2243 67.1034 68.4037 67.503 68.6417 67.843L70.2802 66.6961C70.19 66.5673 70.0882 66.3653 69.9917 66.0631L68.0864 66.6712ZM68.651 67.856C68.8904 68.1866 69.1912 68.4684 69.5631 68.6612L70.4838 66.8857C70.4338 66.8598 70.3596 66.8056 70.2709 66.683L68.651 67.856ZM69.5762 68.6679C69.9414 68.8504 70.3339 68.9375 70.7383 68.9375V66.9375C70.6271 66.9375 70.543 66.9152 70.4707 66.879L69.5762 68.6679ZM70.7383 68.9375C71.2514 68.9375 71.7416 68.7996 72.172 68.5037L71.0389 66.8556C70.9694 66.9035 70.8814 66.9375 70.7383 66.9375V68.9375ZM72.1602 68.5117C72.6102 68.2117 72.9297 67.7779 73.1557 67.295L71.3443 66.4472C71.2266 66.6987 71.1164 66.8039 71.0508 66.8476L72.1602 68.5117ZM73.1591 67.2877C73.3851 66.7947 73.5329 66.2039 73.6267 65.5477L71.6468 65.2648C71.5686 65.8117 71.4587 66.1975 71.3409 66.4544L73.1591 67.2877ZM73.6248 65.5602C73.7289 64.8925 73.7773 64.1155 73.7773 63.2383H71.7773C71.7773 64.0486 71.7321 64.7169 71.6486 65.2523L73.6248 65.5602ZM86.3711 59.8984H87.3711V59.8667L87.3691 59.8349L86.3711 59.8984ZM86.3711 70V71H87.3711V70H86.3711ZM83.6406 70H82.6406V71H83.6406V70ZM83.6406 57.3203V56.3203H82.6406V57.3203H83.6406ZM86.207 57.3203L87.205 57.2568L87.1454 56.3203H86.207V57.3203ZM85.9258 63.2031V64.2031H86.9258V63.2031H85.9258ZM85 63.2031L84.0002 63.2208L84.0175 64.2031H85V63.2031ZM85.2344 60.7656L84.2624 60.5303L84.2602 60.54L85.2344 60.7656ZM86.0312 58.8203L85.192 58.2765L85.1866 58.285L86.0312 58.8203ZM87.3789 57.543L87.8613 58.419L87.871 58.4135L87.3789 57.543ZM90.5781 57.3438L90.182 58.262L90.1928 58.2666L90.2037 58.271L90.5781 57.3438ZM91.6328 58.1289L90.8618 58.7658L90.8701 58.7756L91.6328 58.1289ZM92.582 70V71H93.582V70H92.582ZM89.8516 70H88.8516V71H89.8516V70ZM89.6406 60.3789L88.7052 60.7323L88.7099 60.745L88.7151 60.7575L89.6406 60.3789ZM87.0977 59.7109L87.6681 60.5323L87.6756 60.527L87.6831 60.5216L87.0977 59.7109ZM86.418 60.5312L87.3124 60.9785L87.3164 60.9705L86.418 60.5312ZM86.043 61.7383L87.0284 61.9082L87.0289 61.9054L86.043 61.7383ZM92.4062 62.4766L92.6298 63.4513L93.4062 63.2732V62.4766H92.4062ZM91.1289 62.7695L90.1291 62.7897L90.1539 64.0191L91.3525 63.7442L91.1289 62.7695ZM91.3633 60.5898L92.3328 60.835L92.3334 60.8324L91.3633 60.5898ZM92.1367 58.7734L91.3065 58.2159L91.3008 58.2245L92.1367 58.7734ZM93.4492 57.543L93.9426 58.4128L93.9467 58.4104L93.4492 57.543ZM96.7539 57.3555L96.3681 58.278L96.3753 58.2811L96.3825 58.2839L96.7539 57.3555ZM98.5469 59.6406L97.579 59.892L97.5809 59.8995L97.583 59.907L98.5469 59.6406ZM98.793 70V71H99.793V70H98.793ZM96.0508 70H95.0508V71H96.0508V70ZM95.8398 60.332L94.907 60.6924L94.9106 60.7016L94.9143 60.7107L95.8398 60.332ZM95.2539 59.6172L94.7751 60.4951L94.7854 60.5007L94.7959 60.5062L95.2539 59.6172ZM93.4961 59.6523L94.0508 60.4844L94.0569 60.4803L93.4961 59.6523ZM92.5234 61.293L91.5487 61.0696L91.547 61.0772L91.5453 61.0849L92.5234 61.293ZM85.3711 59.8984V70H87.3711V59.8984H85.3711ZM86.3711 69H83.6406V71H86.3711V69ZM84.6406 70V57.3203H82.6406V70H84.6406ZM83.6406 58.3203H86.207V56.3203H83.6406V58.3203ZM85.209 57.3838L85.3731 59.9619L87.3691 59.8349L87.205 57.2568L85.209 57.3838ZM85.9258 62.2031H85V64.2031H85.9258V62.2031ZM85.9998 63.1854C85.9854 62.3718 86.0578 61.6422 86.2086 60.9912L84.2602 60.54C84.0672 61.3734 83.9833 62.2688 84.0002 63.2208L85.9998 63.1854ZM86.2063 61.0009C86.3643 60.3481 86.5915 59.8043 86.8759 59.3556L85.1866 58.285C84.7678 58.9457 84.4638 59.6988 84.2625 60.5303L86.2063 61.0009ZM86.8705 59.3641C87.147 58.9373 87.4774 58.6304 87.8613 58.4189L86.8965 56.667C86.2023 57.0493 85.6343 57.5939 85.192 58.2766L86.8705 59.3641ZM87.871 58.4135C88.2373 58.2065 88.6913 58.0859 89.2656 58.0859V56.0859C88.4024 56.0859 87.5986 56.2701 86.8868 56.6724L87.871 58.4135ZM89.2656 58.0859C89.6194 58.0859 89.9205 58.1491 90.182 58.262L90.9742 56.4255C90.4389 56.1946 89.8649 56.0859 89.2656 56.0859V58.0859ZM90.2037 58.271C90.4458 58.3688 90.6639 58.5262 90.8619 58.7658L92.4038 57.492C92.0079 57.0128 91.523 56.6469 90.9526 56.4165L90.2037 58.271ZM90.8701 58.7756C91.0647 59.0052 91.2419 59.3321 91.3759 59.7917L93.2959 59.2317C93.1019 58.5664 92.8103 57.9714 92.3956 57.4822L90.8701 58.7756ZM91.3759 59.7917C91.5059 60.2372 91.582 60.8171 91.582 61.5508H93.582C93.582 60.6907 93.4941 59.9112 93.2959 59.2317L91.3759 59.7917ZM91.582 61.5508V70H93.582V61.5508H91.582ZM92.582 69H89.8516V71H92.582V69ZM90.8516 70V61.8086H88.8516V70H90.8516ZM90.8516 61.8086C90.8516 61.142 90.7775 60.5169 90.5662 60.0003L88.7151 60.7575C88.785 60.9284 88.8516 61.2565 88.8516 61.8086H90.8516ZM90.5761 60.0255C90.3835 59.5158 90.06 59.0538 89.5537 58.7623L88.5557 60.4955C88.565 60.5009 88.6321 60.5389 88.7052 60.7323L90.5761 60.0255ZM89.5537 58.7623C89.1123 58.5082 88.6188 58.4062 88.1172 58.4062V60.4062C88.3499 60.4062 88.4814 60.4528 88.5557 60.4955L89.5537 58.7623ZM88.1172 58.4062C87.5409 58.4062 86.9883 58.5564 86.5122 58.9003L87.6831 60.5216C87.7695 60.4593 87.8966 60.4062 88.1172 60.4062V58.4062ZM86.5273 58.8896C86.0869 59.1954 85.7556 59.6094 85.5196 60.092L87.3164 60.9705C87.4241 60.75 87.5459 60.6171 87.6681 60.5323L86.5273 58.8896ZM85.5235 60.084C85.2992 60.5328 85.1482 61.0331 85.057 61.5712L87.0289 61.9054C87.094 61.5216 87.193 61.2172 87.3124 60.9785L85.5235 60.084ZM85.0575 61.5684C84.9685 62.0847 84.9258 62.6304 84.9258 63.2031H86.9258C86.9258 62.729 86.9612 62.2981 87.0284 61.9082L85.0575 61.5684ZM92.1827 61.5019L90.9054 61.7948L91.3525 63.7442L92.6298 63.4513L92.1827 61.5019ZM92.1287 62.7493C92.1147 62.0562 92.1849 61.4196 92.3328 60.835L90.3938 60.3447C90.1979 61.1195 90.1119 61.936 90.1291 62.7897L92.1287 62.7493ZM92.3334 60.8324C92.4816 60.2397 92.698 59.7405 92.9726 59.3224L91.3008 58.2245C90.8879 58.8533 90.5887 59.565 90.3931 60.3473L92.3334 60.8324ZM92.9669 59.331C93.2362 58.93 93.5606 58.6294 93.9426 58.4128L92.9559 56.6731C92.291 57.0502 91.7404 57.57 91.3066 58.2159L92.9669 59.331ZM93.9467 58.4104C94.307 58.2038 94.7443 58.0859 95.2891 58.0859V56.0859C94.4432 56.0859 93.654 56.2728 92.9517 56.6755L93.9467 58.4104ZM95.2891 58.0859C95.7262 58.0859 96.08 58.1576 96.3681 58.278L97.1397 56.4329C96.5685 56.194 95.9457 56.0859 95.2891 56.0859V58.0859ZM96.3825 58.2839C96.6471 58.3898 96.8771 58.5575 97.0794 58.8064L98.6316 57.5452C98.2245 57.0441 97.7201 56.6649 97.1253 56.427L96.3825 58.2839ZM97.0794 58.8064C97.2717 59.0432 97.4488 59.3909 97.579 59.892L99.5148 59.3892C99.3324 58.6872 99.0486 58.0584 98.6316 57.5452L97.0794 58.8064ZM97.583 59.907C97.7159 60.388 97.793 61.0154 97.793 61.8086H99.793C99.793 60.8987 99.706 60.0807 99.5108 59.3743L97.583 59.907ZM97.793 61.8086V70H99.793V61.8086H97.793ZM98.793 69H96.0508V71H98.793V69ZM97.0508 70V61.7969H95.0508V70H97.0508ZM97.0508 61.7969C97.0508 61.1127 96.9781 60.4733 96.7654 59.9534L94.9143 60.7107C94.9829 60.8783 95.0508 61.2154 95.0508 61.7969H97.0508ZM96.7726 59.9716C96.5762 59.4633 96.2413 59.001 95.7119 58.7282L94.7959 60.5062C94.7974 60.5069 94.7991 60.5079 94.8019 60.5102C94.8049 60.5127 94.8112 60.5183 94.8204 60.5294C94.839 60.5522 94.8716 60.6008 94.907 60.6924L96.7726 59.9716ZM95.7328 58.7393C95.2986 58.5025 94.8178 58.4062 94.3281 58.4062V60.4062C94.5572 60.4062 94.6936 60.4506 94.7751 60.4951L95.7328 58.7393ZM94.3281 58.4062C93.83 58.4062 93.3545 58.5404 92.9352 58.8244L94.0569 60.4803C94.1221 60.4361 94.2012 60.4062 94.3281 60.4062V58.4062ZM92.9414 58.8203C92.562 59.0732 92.2635 59.4125 92.0347 59.8047L93.7622 60.8125C93.8615 60.6422 93.9614 60.544 94.0508 60.4844L92.9414 58.8203ZM92.0347 59.8047C91.8114 60.1875 91.6532 60.6134 91.5487 61.0696L93.4982 61.5163C93.5655 61.2225 93.6574 60.9922 93.7622 60.8125L92.0347 59.8047ZM91.5453 61.0849C91.451 61.5283 91.4062 61.9932 91.4062 62.4766H93.4062C93.4062 62.1162 93.4396 61.792 93.5015 61.5011L91.5453 61.0849ZM104.453 57.3203H105.453V56.3203H104.453V57.3203ZM104.453 70V71H105.453V70H104.453ZM101.723 70H100.723V71H101.723V70ZM101.723 57.3203V56.3203H100.723V57.3203H101.723ZM101.98 52.9141L102.717 53.5907L102.726 53.5809L101.98 52.9141ZM103.453 57.3203V70H105.453V57.3203H103.453ZM104.453 69H101.723V71H104.453V69ZM102.723 70V57.3203H100.723V70H102.723ZM101.723 58.3203H104.453V56.3203H101.723V58.3203ZM102.582 54.0039C102.582 53.786 102.641 53.6736 102.717 53.5907L101.244 52.2374C100.789 52.7327 100.582 53.3468 100.582 54.0039H102.582ZM102.726 53.5809C102.764 53.5375 102.841 53.4688 103.094 53.4688V51.4688C102.394 51.4688 101.728 51.6968 101.235 52.2473L102.726 53.5809ZM103.094 53.4688C103.355 53.4688 103.434 53.5393 103.471 53.579L104.943 52.2257C104.449 51.6873 103.785 51.4688 103.094 51.4688V53.4688ZM103.471 53.579C103.547 53.6619 103.605 53.7743 103.605 53.9922H105.605C105.605 53.3351 105.398 52.7209 104.943 52.2257L103.471 53.579ZM103.605 53.9922C103.605 54.197 103.55 54.3073 103.471 54.3937L104.943 55.7469C105.395 55.2552 105.605 54.6468 105.605 53.9922H103.605ZM103.471 54.3937C103.434 54.4334 103.355 54.5039 103.094 54.5039V56.5039C103.785 56.5039 104.449 56.2854 104.943 55.7469L103.471 54.3937ZM103.094 54.5039C102.832 54.5039 102.753 54.4334 102.717 54.3937L101.244 55.7469C101.739 56.2854 102.402 56.5039 103.094 56.5039V54.5039ZM102.717 54.3937C102.634 54.3037 102.582 54.1956 102.582 54.0039H100.582C100.582 54.656 100.796 55.2588 101.244 55.7469L102.717 54.3937Z" fill="black" mask="url(#path-3-outside-2_243_3648)"/>
</g>
<g filter="url(#filter2_d_243_3648)">
<mask id="path-5-outside-3_243_3648" maskUnits="userSpaceOnUse" x="136.054" y="28.634" width="43.6865" height="54.6673" fill="black">
<rect fill="white" x="136.054" y="28.634" width="43.6865" height="54.6673"/>
<path fill-rule="evenodd" clip-rule="evenodd" d="M170.095 34.9065C170.132 34.6794 169.869 34.5272 169.69 34.6727L149.924 50.8094C149.889 50.8379 149.865 50.8731 149.85 50.9112C149.825 50.9431 149.807 50.9818 149.8 51.0259L149.694 51.6764L149.522 52.7365L149.515 52.7797L146.086 73.886L145.986 74.497L145.743 75.9934L145.708 76.212C145.671 76.4391 145.934 76.5913 146.113 76.4458L146.284 76.3057L147.459 75.347L147.938 74.9555L164.502 61.4328L164.536 61.4051L165.368 60.7259L165.879 60.3091C165.914 60.2806 165.938 60.2454 165.953 60.2073C165.978 60.1754 165.996 60.1367 166.003 60.0927L170.095 34.9065ZM151.367 53.8492L148.422 71.9788L162.65 60.3633L157.008 57.1062L151.367 53.8492Z"/>
</mask>
<path fill-rule="evenodd" clip-rule="evenodd" d="M170.095 34.9065C170.132 34.6794 169.869 34.5272 169.69 34.6727L149.924 50.8094C149.889 50.8379 149.865 50.8731 149.85 50.9112C149.825 50.9431 149.807 50.9818 149.8 51.0259L149.694 51.6764L149.522 52.7365L149.515 52.7797L146.086 73.886L145.986 74.497L145.743 75.9934L145.708 76.212C145.671 76.4391 145.934 76.5913 146.113 76.4458L146.284 76.3057L147.459 75.347L147.938 74.9555L164.502 61.4328L164.536 61.4051L165.368 60.7259L165.879 60.3091C165.914 60.2806 165.938 60.2454 165.953 60.2073C165.978 60.1754 165.996 60.1367 166.003 60.0927L170.095 34.9065ZM151.367 53.8492L148.422 71.9788L162.65 60.3633L157.008 57.1062L151.367 53.8492Z" fill="white"/>
<path d="M169.69 34.6727L170.323 35.4474L170.323 35.4474L169.69 34.6727ZM170.095 34.9065L169.108 34.7461L169.108 34.7461L170.095 34.9065ZM149.924 50.8094L149.292 50.0348L149.292 50.0348L149.924 50.8094ZM149.85 50.9112L150.635 51.5306L150.726 51.4145L150.78 51.2769L149.85 50.9112ZM149.8 51.0259L150.787 51.1862L150.787 51.1862L149.8 51.0259ZM149.694 51.6764L150.681 51.8368L150.681 51.8368L149.694 51.6764ZM149.522 52.7365L148.535 52.5761L148.535 52.5761L149.522 52.7365ZM149.515 52.7797L150.502 52.9401L150.502 52.9401L149.515 52.7797ZM146.086 73.886L147.073 74.0463L147.073 74.0463L146.086 73.886ZM145.986 74.497L144.999 74.3367L144.999 74.3367L145.986 74.497ZM145.743 75.9934L146.73 76.1537L146.73 76.1537L145.743 75.9934ZM145.708 76.212L144.721 76.0517L144.721 76.0517L145.708 76.212ZM146.113 76.4458L146.745 77.2204L146.745 77.2204L146.113 76.4458ZM146.284 76.3057L145.652 75.5311L145.652 75.5311L146.284 76.3057ZM147.459 75.347L148.091 76.1216L148.091 76.1216L147.459 75.347ZM147.938 74.9555L147.306 74.1808L147.938 74.9555ZM164.502 61.4328L163.87 60.6581L163.87 60.6581L164.502 61.4328ZM164.536 61.4051L165.169 62.1798L165.169 62.1797L164.536 61.4051ZM165.368 60.7259L164.736 59.9513L165.368 60.7259ZM165.879 60.3091L166.511 61.0837L166.511 61.0837L165.879 60.3091ZM165.953 60.2073L165.168 59.5879L165.077 59.704L165.023 59.8416L165.953 60.2073ZM166.003 60.0927L166.991 60.253L166.991 60.253L166.003 60.0927ZM148.422 71.9788L147.435 71.8185L147.012 74.4207L149.054 72.7535L148.422 71.9788ZM151.367 53.8492L151.867 52.9832L150.612 52.2588L150.38 53.6889L151.367 53.8492ZM162.65 60.3633L163.282 61.1379L164.405 60.2217L163.15 59.4972L162.65 60.3633ZM157.008 57.1062L157.508 56.2402L157.008 57.1062ZM170.323 35.4474C169.788 35.8839 168.998 35.4274 169.108 34.7461L171.082 35.0668C171.267 33.9314 169.949 33.1706 169.058 33.8981L170.323 35.4474ZM150.557 51.584L170.323 35.4474L169.058 33.8981L149.292 50.0348L150.557 51.584ZM150.78 51.2769C150.734 51.3951 150.657 51.5018 150.557 51.584L149.292 50.0348C149.121 50.174 148.995 50.3511 148.919 50.5456L150.78 51.2769ZM150.787 51.1862C150.766 51.3132 150.713 51.4318 150.635 51.5306L149.065 50.2918C148.936 50.4544 148.848 50.6504 148.813 50.8655L150.787 51.1862ZM150.681 51.8368L150.787 51.1862L148.813 50.8655L148.707 51.5161L150.681 51.8368ZM150.509 52.8969L150.681 51.8368L148.707 51.5161L148.535 52.5761L150.509 52.8969ZM150.502 52.9401L150.509 52.8969L148.535 52.5761L148.528 52.6193L150.502 52.9401ZM147.073 74.0463L150.502 52.9401L148.528 52.6193L145.099 73.7256L147.073 74.0463ZM146.974 74.6574L147.073 74.0463L145.099 73.7256L144.999 74.3367L146.974 74.6574ZM146.73 76.1537L146.974 74.6574L144.999 74.3367L144.756 75.833L146.73 76.1537ZM146.695 76.3724L146.73 76.1537L144.756 75.833L144.721 76.0517L146.695 76.3724ZM145.48 75.6712C146.015 75.2347 146.806 75.6911 146.695 76.3724L144.721 76.0517C144.536 77.1872 145.854 77.9479 146.745 77.2204L145.48 75.6712ZM145.652 75.5311L145.48 75.6712L146.745 77.2204L146.917 77.0803L145.652 75.5311ZM146.826 74.5723L145.652 75.5311L146.917 77.0803L148.091 76.1216L146.826 74.5723ZM147.306 74.1808L146.826 74.5724L148.091 76.1216L148.571 75.7301L147.306 74.1808ZM163.87 60.6581L147.306 74.1808L148.571 75.7301L165.135 62.2074L163.87 60.6581ZM163.904 60.6305L163.87 60.6581L165.135 62.2074L165.169 62.1798L163.904 60.6305ZM164.736 59.9513L163.904 60.6305L165.169 62.1797L166.001 61.5006L164.736 59.9513ZM165.246 59.5345L164.736 59.9513L166.001 61.5006L166.511 61.0837L165.246 59.5345ZM165.023 59.8416C165.069 59.7234 165.146 59.6167 165.246 59.5345L166.511 61.0837C166.682 60.9445 166.808 60.7674 166.884 60.5729L165.023 59.8416ZM165.016 59.9323C165.037 59.8053 165.09 59.6867 165.168 59.5879L166.738 60.8267C166.867 60.6642 166.956 60.4681 166.991 60.253L165.016 59.9323ZM169.108 34.7461L165.016 59.9323L166.991 60.253L171.082 35.0668L169.108 34.7461ZM149.409 72.1392L152.354 54.0096L150.38 53.6889L147.435 71.8185L149.409 72.1392ZM162.017 59.5886L147.789 71.2042L149.054 72.7535L163.282 61.1379L162.017 59.5886ZM156.508 57.9723L162.15 61.2293L163.15 59.4972L157.508 56.2402L156.508 57.9723ZM150.867 54.7152L156.508 57.9723L157.508 56.2402L151.867 52.9832L150.867 54.7152Z" fill="black" mask="url(#path-5-outside-3_243_3648)"/>
<path d="M162.964 34.6381C163.094 34.668 163.229 34.6452 163.342 34.5749C163.454 34.5047 163.534 34.3926 163.564 34.2634L164.014 32.3146C164.076 32.0455 163.908 31.7771 163.639 31.715C150.4 28.6596 137.191 36.9151 134.135 50.1541C132.217 58.4667 134.759 66.7669 140.188 72.5465C140.377 72.7478 140.693 72.7577 140.895 72.5686L142.352 71.1993C142.449 71.1086 142.506 70.9831 142.51 70.8505C142.514 70.718 142.465 70.5892 142.374 70.4926C137.602 65.4116 135.375 58.125 137.059 50.8287C139.741 39.2041 151.34 31.9553 162.964 34.6381ZM174.205 40.5313C174.106 40.6199 174.047 40.7441 174.04 40.8765C174.033 41.0089 174.079 41.1387 174.167 41.2374C178.713 46.2996 180.8 53.4169 179.155 60.544C176.472 72.1686 164.874 79.4173 153.249 76.7346C153.12 76.7047 152.984 76.7275 152.872 76.7977C152.759 76.868 152.679 76.9801 152.649 77.1093L152.2 79.0581C152.138 79.3272 152.305 79.5956 152.574 79.6577C165.814 82.7131 179.023 74.4576 182.078 61.2186C183.952 53.0991 181.57 44.9911 176.399 39.233C176.215 39.0275 175.899 39.0105 175.693 39.195L174.205 40.5313Z" fill="white" stroke="black" stroke-linejoin="round"/>
</g>
<g filter="url(#filter3_d_243_3648)">
<mask id="path-8-outside-4_243_3648" maskUnits="userSpaceOnUse" x="152" y="9" width="13" height="16" fill="black">
<rect fill="white" x="152" y="9" width="13" height="16"/>
<path d="M163.699 10.3477V24H160.969L156.234 15.0469V24H153.562V10.3477H156.293L161.027 19.3477V10.3477H163.699Z"/>
</mask>
<path d="M163.699 10.3477V24H160.969L156.234 15.0469V24H153.562V10.3477H156.293L161.027 19.3477V10.3477H163.699Z" fill="white"/>
<path d="M163.699 10.3477H164.699V9.34766H163.699V10.3477ZM163.699 24V25H164.699V24H163.699ZM160.969 24L160.085 24.4675L160.366 25H160.969V24ZM156.234 15.0469L157.118 14.5794L155.234 15.0469H156.234ZM156.234 24V25H157.234V24H156.234ZM153.562 24H152.562V25H153.562V24ZM153.562 10.3477V9.34766H152.562V10.3477H153.562ZM156.293 10.3477L157.178 9.8821L156.897 9.34766H156.293V10.3477ZM161.027 19.3477L160.142 19.8132L162.027 19.3477H161.027ZM161.027 10.3477V9.34766H160.027V10.3477H161.027ZM162.699 10.3477V24H164.699V10.3477H162.699ZM163.699 23H160.969V25H163.699V23ZM161.853 23.5325L157.118 14.5794L155.35 15.5143L160.085 24.4675L161.853 23.5325ZM155.234 15.0469V24H157.234V15.0469H155.234ZM156.234 23H153.562V25H156.234V23ZM154.562 24V10.3477H152.562V24H154.562ZM153.562 11.3477H156.293V9.34766H153.562V11.3477ZM155.408 10.8132L160.142 19.8132L161.912 18.8821L157.178 9.8821L155.408 10.8132ZM162.027 19.3477V10.3477H160.027V19.3477H162.027ZM161.027 11.3477H163.699V9.34766H161.027V11.3477Z" fill="black" mask="url(#path-8-outside-4_243_3648)"/>
</g>
<defs>
<filter id="filter0_d_243_3648" x="0" y="53" width="122" height="37" filterUnits="userSpaceOnUse" color-interpolation-filters="sRGB">
<feFlood flood-opacity="0" result="BackgroundImageFix"/>
<feColorMatrix in="SourceAlpha" type="matrix" values="0 0 0 0 0 0 0 0 0 0 0 0 0 0 0 0 0 0 127 0" result="hardAlpha"/>
<feOffset/>
<feGaussianBlur stdDeviation="5"/>
<feComposite in2="hardAlpha" operator="out"/>
<feColorMatrix type="matrix" values="0 0 0 0 0 0 0 0 0 0 0 0 0 0 0 0 0 0 1 0"/>
<feBlend mode="normal" in2="BackgroundImageFix" result="effect1_dropShadow_243_3648"/>
<feBlend mode="normal" in="SourceGraphic" in2="effect1_dropShadow_243_3648" result="shape"/>
</filter>
<filter id="filter1_d_243_3648" x="46.6016" y="44.4688" width="66.0039" height="33.7656" filterUnits="userSpaceOnUse" color-interpolation-filters="sRGB">
<feFlood flood-opacity="0" result="BackgroundImageFix"/>
<feColorMatrix in="SourceAlpha" type="matrix" values="0 0 0 0 0 0 0 0 0 0 0 0 0 0 0 0 0 0 127 0" result="hardAlpha"/>
<feOffset/>
<feGaussianBlur stdDeviation="4"/>
<feComposite in2="hardAlpha" operator="out"/>
<feColorMatrix type="matrix" values="0 0 0 0 0 0 0 0 0 0 0 0 0 0 0 0 0 0 0.8 0"/>
<feBlend mode="normal" in2="BackgroundImageFix" result="effect1_dropShadow_243_3648"/>
<feBlend mode="normal" in="SourceGraphic" in2="effect1_dropShadow_243_3648" result="shape"/>
</filter>
<filter id="filter2_d_243_3648" x="123" y="20.5793" width="70.2137" height="70.2141" filterUnits="userSpaceOnUse" color-interpolation-filters="sRGB">
<feFlood flood-opacity="0" result="BackgroundImageFix"/>
<feColorMatrix in="SourceAlpha" type="matrix" values="0 0 0 0 0 0 0 0 0 0 0 0 0 0 0 0 0 0 127 0" result="hardAlpha"/>
<feOffset/>
<feGaussianBlur stdDeviation="5"/>
<feComposite in2="hardAlpha" operator="out"/>
<feColorMatrix type="matrix" values="0 0 0 0 0 0 0 0 0 0 0 0 0 0 0 0 0 0 1 0"/>
<feBlend mode="normal" in2="BackgroundImageFix" result="effect1_dropShadow_243_3648"/>
<feBlend mode="normal" in="SourceGraphic" in2="effect1_dropShadow_243_3648" result="shape"/>
</filter>
<filter id="filter3_d_243_3648" x="143.562" y="0.347656" width="30.1367" height="33.6523" filterUnits="userSpaceOnUse" color-interpolation-filters="sRGB">
<feFlood flood-opacity="0" result="BackgroundImageFix"/>
<feColorMatrix in="SourceAlpha" type="matrix" values="0 0 0 0 0 0 0 0 0 0 0 0 0 0 0 0 0 0 127 0" result="hardAlpha"/>
<feOffset/>
<feGaussianBlur stdDeviation="5"/>
<feComposite in2="hardAlpha" operator="out"/>
<feColorMatrix type="matrix" values="0 0 0 0 0 0 0 0 0 0 0 0 0 0 0 0 0 0 1 0"/>
<feBlend mode="normal" in2="BackgroundImageFix" result="effect1_dropShadow_243_3648"/>
<feBlend mode="normal" in="SourceGraphic" in2="effect1_dropShadow_243_3648" result="shape"/>
</filter>
</defs>
</svg>
