<svg width="184" height="88" viewBox="0 0 184 88" fill="none" xmlns="http://www.w3.org/2000/svg">
<g filter="url(#filter0_d_243_3623)">
<mask id="path-1-outside-1_243_3623" maskUnits="userSpaceOnUse" x="10" y="59" width="102" height="17" fill="black">
<rect fill="white" x="10" y="59" width="102" height="17"/>
<path fill-rule="evenodd" clip-rule="evenodd" d="M11 60V72V74V75H111V72H14L14 60H11Z"/>
</mask>
<path fill-rule="evenodd" clip-rule="evenodd" d="M11 60V72V74V75H111V72H14L14 60H11Z" fill="white"/>
<path d="M11 60V59H10V60H11ZM11 75H10V76H11V75ZM111 75V76H112V75H111ZM111 72H112V71H111V72ZM14 72H13V73H14V72ZM14 60L15 60V59H14V60ZM12 72V60H10V72H12ZM12 74V72H10V74H12ZM12 75V74H10V75H12ZM111 74H11V76H111V74ZM110 72V75H112V72H110ZM14 73H111V71H14V73ZM13 60L13 72H15L15 60L13 60ZM11 61H14V59H11V61Z" fill="black" mask="url(#path-1-outside-1_243_3623)"/>
</g>
<g filter="url(#filter1_d_243_3623)">
<mask id="path-3-outside-2_243_3623" maskUnits="userSpaceOnUse" x="53" y="47" width="53" height="21" fill="black">
<rect fill="white" x="53" y="47" width="53" height="21"/>
<path d="M60.7305 48.8789V66H58V52.3008L54.6016 53.707V51.3281L60.4023 48.8789H60.7305ZM75.4961 56.0391V58.8281C75.4961 60.1641 75.3789 61.3047 75.1445 62.25C74.918 63.1875 74.5938 63.9492 74.1719 64.5352C73.7578 65.1211 73.2578 65.5508 72.6719 65.8242C72.0938 66.0977 71.4492 66.2344 70.7383 66.2344C70.1758 66.2344 69.6484 66.1484 69.1562 65.9766C68.6641 65.8047 68.2188 65.5352 67.8203 65.168C67.4297 64.8008 67.0938 64.3281 66.8125 63.75C66.5391 63.1641 66.3242 62.4648 66.168 61.6523C66.0195 60.8398 65.9453 59.8984 65.9453 58.8281V56.0391C65.9453 54.6953 66.0625 53.5625 66.2969 52.6406C66.5312 51.7109 66.8594 50.957 67.2812 50.3789C67.7031 49.793 68.2031 49.3672 68.7812 49.1016C69.3672 48.8359 70.0156 48.7031 70.7266 48.7031C71.2891 48.7031 71.8164 48.7891 72.3086 48.9609C72.8008 49.125 73.2422 49.3867 73.6328 49.7461C74.0234 50.1055 74.3594 50.5742 74.6406 51.1523C74.9219 51.7227 75.1328 52.4141 75.2734 53.2266C75.4219 54.0312 75.4961 54.9688 75.4961 56.0391ZM72.7773 59.2383V55.6055C72.7773 54.9336 72.7461 54.3398 72.6836 53.8242C72.6211 53.3086 72.5352 52.8711 72.4258 52.5117C72.3242 52.1523 72.1875 51.8633 72.0156 51.6445C71.8438 51.418 71.6484 51.2539 71.4297 51.1523C71.2188 51.043 70.9844 50.9883 70.7266 50.9883C70.4062 50.9883 70.1172 51.0703 69.8594 51.2344C69.6094 51.3984 69.3945 51.6641 69.2148 52.0312C69.043 52.3906 68.9102 52.8672 68.8164 53.4609C68.7227 54.0469 68.6758 54.7617 68.6758 55.6055V59.2383C68.6758 59.918 68.707 60.5156 68.7695 61.0312C68.832 61.5469 68.9219 61.9922 69.0391 62.3672C69.1562 62.7344 69.2969 63.0352 69.4609 63.2695C69.625 63.4961 69.8125 63.6641 70.0234 63.7734C70.2422 63.8828 70.4805 63.9375 70.7383 63.9375C71.0664 63.9375 71.3555 63.8516 71.6055 63.6797C71.8633 63.5078 72.0781 63.2383 72.25 62.8711C72.4219 62.4961 72.5508 62.0078 72.6367 61.4062C72.7305 60.8047 72.7773 60.082 72.7773 59.2383ZM86.3711 55.8984V66H83.6406V53.3203H86.207L86.3711 55.8984ZM85.9258 59.2031H85C84.9844 58.3203 85.0625 57.5078 85.2344 56.7656C85.4141 56.0234 85.6797 55.375 86.0312 54.8203C86.3906 54.2656 86.8398 53.8398 87.3789 53.543C87.918 53.2383 88.5469 53.0859 89.2656 53.0859C89.7422 53.0859 90.1797 53.1719 90.5781 53.3438C90.9844 53.5078 91.3359 53.7695 91.6328 54.1289C91.9375 54.4883 92.1719 54.9492 92.3359 55.5117C92.5 56.0742 92.582 56.7539 92.582 57.5508V66H89.8516V57.8086C89.8516 57.1992 89.7812 56.7227 89.6406 56.3789C89.5078 56.0273 89.3125 55.7773 89.0547 55.6289C88.7969 55.4805 88.4844 55.4062 88.1172 55.4062C87.7188 55.4062 87.3789 55.5078 87.0977 55.7109C86.8164 55.9062 86.5898 56.1797 86.418 56.5312C86.2461 56.875 86.1211 57.2773 86.043 57.7383C85.9648 58.1914 85.9258 58.6797 85.9258 59.2031ZM92.4062 58.4766L91.1289 58.7695C91.1133 57.9961 91.1914 57.2695 91.3633 56.5898C91.5352 55.9023 91.793 55.2969 92.1367 54.7734C92.4883 54.25 92.9258 53.8398 93.4492 53.543C93.9805 53.2383 94.5938 53.0859 95.2891 53.0859C95.8359 53.0859 96.3242 53.1758 96.7539 53.3555C97.1836 53.5273 97.5508 53.8008 97.8555 54.1758C98.1602 54.5508 98.3906 55.0391 98.5469 55.6406C98.7109 56.2344 98.793 56.957 98.793 57.8086V66H96.0508V57.7969C96.0508 57.1641 95.9805 56.6758 95.8398 56.332C95.707 55.9883 95.5117 55.75 95.2539 55.6172C94.9961 55.4766 94.6875 55.4062 94.3281 55.4062C94.0156 55.4062 93.7383 55.4883 93.4961 55.6523C93.2617 55.8086 93.0625 56.0273 92.8984 56.3086C92.7344 56.5898 92.6094 56.918 92.5234 57.293C92.4453 57.6602 92.4062 58.0547 92.4062 58.4766ZM104.453 53.3203V66H101.723V53.3203H104.453ZM101.582 50.0039C101.582 49.5664 101.715 49.2031 101.98 48.9141C102.246 48.6172 102.617 48.4688 103.094 48.4688C103.57 48.4688 103.941 48.6133 104.207 48.9023C104.473 49.1914 104.605 49.5547 104.605 49.9922C104.605 50.4219 104.473 50.7812 104.207 51.0703C103.941 51.3594 103.57 51.5039 103.094 51.5039C102.617 51.5039 102.246 51.3594 101.98 51.0703C101.715 50.7812 101.582 50.4258 101.582 50.0039Z"/>
</mask>
<path d="M60.7305 48.8789V66H58V52.3008L54.6016 53.707V51.3281L60.4023 48.8789H60.7305ZM75.4961 56.0391V58.8281C75.4961 60.1641 75.3789 61.3047 75.1445 62.25C74.918 63.1875 74.5938 63.9492 74.1719 64.5352C73.7578 65.1211 73.2578 65.5508 72.6719 65.8242C72.0938 66.0977 71.4492 66.2344 70.7383 66.2344C70.1758 66.2344 69.6484 66.1484 69.1562 65.9766C68.6641 65.8047 68.2188 65.5352 67.8203 65.168C67.4297 64.8008 67.0938 64.3281 66.8125 63.75C66.5391 63.1641 66.3242 62.4648 66.168 61.6523C66.0195 60.8398 65.9453 59.8984 65.9453 58.8281V56.0391C65.9453 54.6953 66.0625 53.5625 66.2969 52.6406C66.5312 51.7109 66.8594 50.957 67.2812 50.3789C67.7031 49.793 68.2031 49.3672 68.7812 49.1016C69.3672 48.8359 70.0156 48.7031 70.7266 48.7031C71.2891 48.7031 71.8164 48.7891 72.3086 48.9609C72.8008 49.125 73.2422 49.3867 73.6328 49.7461C74.0234 50.1055 74.3594 50.5742 74.6406 51.1523C74.9219 51.7227 75.1328 52.4141 75.2734 53.2266C75.4219 54.0312 75.4961 54.9688 75.4961 56.0391ZM72.7773 59.2383V55.6055C72.7773 54.9336 72.7461 54.3398 72.6836 53.8242C72.6211 53.3086 72.5352 52.8711 72.4258 52.5117C72.3242 52.1523 72.1875 51.8633 72.0156 51.6445C71.8438 51.418 71.6484 51.2539 71.4297 51.1523C71.2188 51.043 70.9844 50.9883 70.7266 50.9883C70.4062 50.9883 70.1172 51.0703 69.8594 51.2344C69.6094 51.3984 69.3945 51.6641 69.2148 52.0312C69.043 52.3906 68.9102 52.8672 68.8164 53.4609C68.7227 54.0469 68.6758 54.7617 68.6758 55.6055V59.2383C68.6758 59.918 68.707 60.5156 68.7695 61.0312C68.832 61.5469 68.9219 61.9922 69.0391 62.3672C69.1562 62.7344 69.2969 63.0352 69.4609 63.2695C69.625 63.4961 69.8125 63.6641 70.0234 63.7734C70.2422 63.8828 70.4805 63.9375 70.7383 63.9375C71.0664 63.9375 71.3555 63.8516 71.6055 63.6797C71.8633 63.5078 72.0781 63.2383 72.25 62.8711C72.4219 62.4961 72.5508 62.0078 72.6367 61.4062C72.7305 60.8047 72.7773 60.082 72.7773 59.2383ZM86.3711 55.8984V66H83.6406V53.3203H86.207L86.3711 55.8984ZM85.9258 59.2031H85C84.9844 58.3203 85.0625 57.5078 85.2344 56.7656C85.4141 56.0234 85.6797 55.375 86.0312 54.8203C86.3906 54.2656 86.8398 53.8398 87.3789 53.543C87.918 53.2383 88.5469 53.0859 89.2656 53.0859C89.7422 53.0859 90.1797 53.1719 90.5781 53.3438C90.9844 53.5078 91.3359 53.7695 91.6328 54.1289C91.9375 54.4883 92.1719 54.9492 92.3359 55.5117C92.5 56.0742 92.582 56.7539 92.582 57.5508V66H89.8516V57.8086C89.8516 57.1992 89.7812 56.7227 89.6406 56.3789C89.5078 56.0273 89.3125 55.7773 89.0547 55.6289C88.7969 55.4805 88.4844 55.4062 88.1172 55.4062C87.7188 55.4062 87.3789 55.5078 87.0977 55.7109C86.8164 55.9062 86.5898 56.1797 86.418 56.5312C86.2461 56.875 86.1211 57.2773 86.043 57.7383C85.9648 58.1914 85.9258 58.6797 85.9258 59.2031ZM92.4062 58.4766L91.1289 58.7695C91.1133 57.9961 91.1914 57.2695 91.3633 56.5898C91.5352 55.9023 91.793 55.2969 92.1367 54.7734C92.4883 54.25 92.9258 53.8398 93.4492 53.543C93.9805 53.2383 94.5938 53.0859 95.2891 53.0859C95.8359 53.0859 96.3242 53.1758 96.7539 53.3555C97.1836 53.5273 97.5508 53.8008 97.8555 54.1758C98.1602 54.5508 98.3906 55.0391 98.5469 55.6406C98.7109 56.2344 98.793 56.957 98.793 57.8086V66H96.0508V57.7969C96.0508 57.1641 95.9805 56.6758 95.8398 56.332C95.707 55.9883 95.5117 55.75 95.2539 55.6172C94.9961 55.4766 94.6875 55.4062 94.3281 55.4062C94.0156 55.4062 93.7383 55.4883 93.4961 55.6523C93.2617 55.8086 93.0625 56.0273 92.8984 56.3086C92.7344 56.5898 92.6094 56.918 92.5234 57.293C92.4453 57.6602 92.4062 58.0547 92.4062 58.4766ZM104.453 53.3203V66H101.723V53.3203H104.453ZM101.582 50.0039C101.582 49.5664 101.715 49.2031 101.98 48.9141C102.246 48.6172 102.617 48.4688 103.094 48.4688C103.57 48.4688 103.941 48.6133 104.207 48.9023C104.473 49.1914 104.605 49.5547 104.605 49.9922C104.605 50.4219 104.473 50.7812 104.207 51.0703C103.941 51.3594 103.57 51.5039 103.094 51.5039C102.617 51.5039 102.246 51.3594 101.98 51.0703C101.715 50.7812 101.582 50.4258 101.582 50.0039Z" fill="white"/>
<path d="M60.7305 48.8789H61.7305V47.8789H60.7305V48.8789ZM60.7305 66V67H61.7305V66H60.7305ZM58 66H57V67H58V66ZM58 52.3008H59V50.8048L57.6176 51.3768L58 52.3008ZM54.6016 53.707H53.6016V55.2031L54.9839 54.631L54.6016 53.707ZM54.6016 51.3281L54.2126 50.4069L53.6016 50.6649V51.3281H54.6016ZM60.4023 48.8789V47.8789H60.1999L60.0134 47.9577L60.4023 48.8789ZM59.7305 48.8789V66H61.7305V48.8789H59.7305ZM60.7305 65H58V67H60.7305V65ZM59 66V52.3008H57V66H59ZM57.6176 51.3768L54.2192 52.783L54.9839 54.631L58.3824 53.2248L57.6176 51.3768ZM55.6016 53.707V51.3281H53.6016V53.707H55.6016ZM54.9905 52.2494L60.7913 49.8002L60.0134 47.9577L54.2126 50.4069L54.9905 52.2494ZM60.4023 49.8789H60.7305V47.8789H60.4023V49.8789ZM75.1445 62.25L74.1739 62.0093L74.1725 62.0151L75.1445 62.25ZM74.1719 64.5352L73.3603 63.9508L73.3552 63.958L74.1719 64.5352ZM72.6719 65.8242L72.249 64.918L72.2443 64.9202L72.6719 65.8242ZM67.8203 65.168L67.1354 65.8966L67.1426 65.9033L67.8203 65.168ZM66.8125 63.75L65.9063 64.1729L65.9097 64.1802L65.9133 64.1875L66.8125 63.75ZM66.168 61.6523L65.1842 61.8321L65.186 61.8412L66.168 61.6523ZM66.2969 52.6406L67.266 52.887L67.2665 52.8851L66.2969 52.6406ZM67.2812 50.3789L68.0891 50.9684L68.0928 50.9632L67.2812 50.3789ZM68.7812 49.1016L68.3684 48.1908L68.3638 48.1929L68.7812 49.1016ZM72.3086 48.9609L71.9789 49.905L71.9856 49.9074L71.9924 49.9096L72.3086 48.9609ZM74.6406 51.1523L73.7414 51.5898L73.7438 51.5946L74.6406 51.1523ZM75.2734 53.2266L74.288 53.3971L74.29 53.408L75.2734 53.2266ZM72.4258 52.5117L71.4635 52.7837L71.4662 52.7933L71.4691 52.8029L72.4258 52.5117ZM72.0156 51.6445L71.2189 52.2489L71.2241 52.2557L71.2293 52.2624L72.0156 51.6445ZM71.4297 51.1523L70.9694 52.0401L70.9888 52.0502L71.0086 52.0594L71.4297 51.1523ZM69.8594 51.2344L69.3224 50.3906L69.3107 50.3983L69.8594 51.2344ZM69.2148 52.0312L68.3166 51.5917L68.3127 51.5998L69.2148 52.0312ZM68.8164 53.4609L69.8038 53.6189L69.8042 53.6169L68.8164 53.4609ZM69.0391 62.3672L68.0846 62.6655L68.0864 62.6712L69.0391 62.3672ZM69.4609 63.2695L68.6417 63.843L68.6463 63.8496L68.651 63.856L69.4609 63.2695ZM70.0234 63.7734L69.5631 64.6612L69.5696 64.6646L69.5762 64.6679L70.0234 63.7734ZM71.6055 63.6797L71.0508 62.8476L71.0448 62.8516L71.0389 62.8556L71.6055 63.6797ZM72.25 62.8711L73.1557 63.295L73.1591 63.2877L72.25 62.8711ZM72.6367 61.4062L71.6486 61.2523L71.6468 61.2648L72.6367 61.4062ZM74.4961 56.0391V58.8281H76.4961V56.0391H74.4961ZM74.4961 58.8281C74.4961 60.1107 74.3831 61.1658 74.1739 62.0094L76.1151 62.4906C76.3747 61.4436 76.4961 60.2175 76.4961 58.8281H74.4961ZM74.1725 62.0151C73.9667 62.8667 73.6859 63.4987 73.3603 63.9509L74.9834 65.1195C75.5016 64.3997 75.8692 63.5083 76.1166 62.4849L74.1725 62.0151ZM73.3552 63.958C73.0303 64.4178 72.6605 64.726 72.249 64.918L73.0948 66.7304C73.8551 66.3756 74.4853 65.8243 74.9885 65.1123L73.3552 63.958ZM72.2443 64.9202C71.8141 65.1237 71.318 65.2344 70.7383 65.2344V67.2344C71.5804 67.2344 72.3734 67.0716 73.0994 66.7282L72.2443 64.9202ZM70.7383 65.2344C70.2792 65.2344 69.8641 65.1645 69.4859 65.0325L68.8266 66.9207C69.4328 67.1324 70.0724 67.2344 70.7383 67.2344V65.2344ZM69.4859 65.0325C69.1279 64.9074 68.8 64.7109 68.498 64.4326L67.1426 65.9033C67.6375 66.3594 68.2002 66.7019 68.8266 66.9207L69.4859 65.0325ZM68.5052 64.4393C68.2188 64.1701 67.9501 63.8026 67.7117 63.3125L65.9133 64.1875C66.2374 64.8536 66.6405 65.4314 67.1354 65.8966L68.5052 64.4393ZM67.7187 63.3271C67.4882 62.8331 67.2948 62.2164 67.15 61.4635L65.186 61.8412C65.3537 62.7132 65.59 63.495 65.9063 64.1729L67.7187 63.3271ZM67.1517 61.4726C67.0167 60.7338 66.9453 59.8548 66.9453 58.8281H64.9453C64.9453 59.9421 65.0224 60.9459 65.1843 61.8321L67.1517 61.4726ZM66.9453 58.8281V56.0391H64.9453V58.8281H66.9453ZM66.9453 56.0391C66.9453 54.7472 67.0586 53.7029 67.266 52.887L65.3277 52.3942C65.0664 53.4221 64.9453 54.6434 64.9453 56.0391H66.9453ZM67.2665 52.8851C67.4796 52.0399 67.7637 51.4143 68.089 50.9684L66.4735 49.7894C65.9551 50.4998 65.5829 51.382 65.3272 52.3962L67.2665 52.8851ZM68.0928 50.9632C68.4274 50.4984 68.798 50.1943 69.1987 50.0102L68.3638 48.1929C67.6082 48.54 66.9788 49.0875 66.4697 49.7946L68.0928 50.9632ZM69.1941 50.0123C69.6373 49.8114 70.143 49.7031 70.7266 49.7031V47.7031C69.8883 47.7031 69.0971 47.8604 68.3684 48.1908L69.1941 50.0123ZM70.7266 49.7031C71.1857 49.7031 71.6008 49.773 71.9789 49.905L72.6383 48.0168C72.032 47.8051 71.3924 47.7031 70.7266 47.7031V49.7031ZM71.9924 49.9096C72.3475 50.028 72.6666 50.216 72.9558 50.482L74.3099 49.0102C73.8178 48.5575 73.2541 48.222 72.6248 48.0123L71.9924 49.9096ZM72.9558 50.482C73.2371 50.7409 73.5036 51.1011 73.7414 51.5898L75.5399 50.7149C75.2151 50.0474 74.8098 49.4701 74.3099 49.0102L72.9558 50.482ZM73.7438 51.5946C73.9723 52.058 74.1592 52.6526 74.2881 53.3971L76.2588 53.056C76.1064 52.1755 75.8715 51.3873 75.5375 50.7101L73.7438 51.5946ZM74.29 53.408C74.4247 54.1378 74.4961 55.0122 74.4961 56.0391H76.4961C76.4961 54.9253 76.4191 53.9247 76.2568 53.0452L74.29 53.408ZM73.7773 59.2383V55.6055H71.7773V59.2383H73.7773ZM73.7773 55.6055C73.7773 54.9044 73.7448 54.269 73.6763 53.7039L71.6909 53.9446C71.7474 54.4107 71.7773 54.9628 71.7773 55.6055H73.7773ZM73.6763 53.7039C73.6093 53.1506 73.5139 52.6523 73.3825 52.2206L71.4691 52.8029C71.5565 53.0899 71.6329 53.4666 71.6909 53.9446L73.6763 53.7039ZM73.3881 52.2398C73.2625 51.7953 73.077 51.3768 72.8019 51.0267L71.2293 52.2624C71.298 52.3498 71.386 52.5094 71.4635 52.7837L73.3881 52.2398ZM72.8123 51.0401C72.5595 50.7068 72.242 50.4269 71.8508 50.2453L71.0086 52.0594C71.0549 52.0809 71.128 52.1291 71.2189 52.2489L72.8123 51.0401ZM71.89 50.2646C71.525 50.0753 71.1307 49.9883 70.7266 49.9883V51.9883C70.8381 51.9883 70.9125 52.0106 70.9694 52.0401L71.89 50.2646ZM70.7266 49.9883C70.2257 49.9883 69.7487 50.1195 69.3225 50.3907L70.3962 52.078C70.4857 52.0211 70.5868 51.9883 70.7266 51.9883V49.9883ZM69.3107 50.3983C68.8655 50.6905 68.5474 51.1202 68.3166 51.5917L70.1131 52.4708C70.2417 52.2079 70.3533 52.1064 70.408 52.0704L69.3107 50.3983ZM68.3127 51.5998C68.0837 52.0787 67.9306 52.6591 67.8286 53.305L69.8042 53.6169C69.8897 53.0753 70.0023 52.7026 70.117 52.4627L68.3127 51.5998ZM67.829 53.3029C67.7242 53.9578 67.6758 54.7289 67.6758 55.6055H69.6758C69.6758 54.7945 69.7211 54.1359 69.8038 53.6189L67.829 53.3029ZM67.6758 55.6055V59.2383H69.6758V55.6055H67.6758ZM67.6758 59.2383C67.6758 59.9467 67.7082 60.586 67.7768 61.1516L69.7623 60.9109C69.7058 60.4452 69.6758 59.8893 69.6758 59.2383H67.6758ZM67.7768 61.1516C67.8444 61.7095 67.9446 62.2174 68.0846 62.6655L69.9935 62.0689C69.8992 61.767 69.8196 61.3842 69.7623 60.9109L67.7768 61.1516ZM68.0864 62.6712C68.2243 63.1034 68.4037 63.503 68.6417 63.843L70.2802 62.6961C70.19 62.5673 70.0882 62.3653 69.9917 62.0631L68.0864 62.6712ZM68.651 63.856C68.8904 64.1866 69.1912 64.4684 69.5631 64.6612L70.4838 62.8857C70.4338 62.8598 70.3596 62.8056 70.2709 62.683L68.651 63.856ZM69.5762 64.6679C69.9414 64.8504 70.3339 64.9375 70.7383 64.9375V62.9375C70.6271 62.9375 70.543 62.9152 70.4707 62.879L69.5762 64.6679ZM70.7383 64.9375C71.2514 64.9375 71.7416 64.7996 72.172 64.5037L71.0389 62.8556C70.9694 62.9035 70.8814 62.9375 70.7383 62.9375V64.9375ZM72.1602 64.5117C72.6102 64.2117 72.9297 63.7779 73.1557 63.295L71.3443 62.4472C71.2266 62.6987 71.1164 62.8039 71.0508 62.8476L72.1602 64.5117ZM73.1591 63.2877C73.3851 62.7947 73.5329 62.2039 73.6267 61.5477L71.6468 61.2648C71.5686 61.8117 71.4587 62.1975 71.3409 62.4544L73.1591 63.2877ZM73.6248 61.5602C73.7289 60.8925 73.7773 60.1155 73.7773 59.2383H71.7773C71.7773 60.0486 71.7321 60.7169 71.6486 61.2523L73.6248 61.5602ZM86.3711 55.8984H87.3711V55.8667L87.3691 55.8349L86.3711 55.8984ZM86.3711 66V67H87.3711V66H86.3711ZM83.6406 66H82.6406V67H83.6406V66ZM83.6406 53.3203V52.3203H82.6406V53.3203H83.6406ZM86.207 53.3203L87.205 53.2568L87.1454 52.3203H86.207V53.3203ZM85.9258 59.2031V60.2031H86.9258V59.2031H85.9258ZM85 59.2031L84.0002 59.2208L84.0175 60.2031H85V59.2031ZM85.2344 56.7656L84.2624 56.5303L84.2602 56.54L85.2344 56.7656ZM86.0312 54.8203L85.192 54.2765L85.1866 54.285L86.0312 54.8203ZM87.3789 53.543L87.8613 54.419L87.871 54.4135L87.3789 53.543ZM90.5781 53.3438L90.182 54.262L90.1928 54.2666L90.2037 54.271L90.5781 53.3438ZM91.6328 54.1289L90.8618 54.7658L90.8701 54.7756L91.6328 54.1289ZM92.582 66V67H93.582V66H92.582ZM89.8516 66H88.8516V67H89.8516V66ZM89.6406 56.3789L88.7052 56.7323L88.7099 56.745L88.7151 56.7575L89.6406 56.3789ZM87.0977 55.7109L87.6681 56.5323L87.6756 56.527L87.6831 56.5216L87.0977 55.7109ZM86.418 56.5312L87.3124 56.9785L87.3164 56.9705L86.418 56.5312ZM86.043 57.7383L87.0284 57.9082L87.0289 57.9054L86.043 57.7383ZM92.4062 58.4766L92.6298 59.4513L93.4062 59.2732V58.4766H92.4062ZM91.1289 58.7695L90.1291 58.7897L90.1539 60.0191L91.3525 59.7442L91.1289 58.7695ZM91.3633 56.5898L92.3328 56.835L92.3334 56.8324L91.3633 56.5898ZM92.1367 54.7734L91.3065 54.2159L91.3008 54.2245L92.1367 54.7734ZM93.4492 53.543L93.9426 54.4128L93.9467 54.4104L93.4492 53.543ZM96.7539 53.3555L96.3681 54.278L96.3753 54.2811L96.3825 54.2839L96.7539 53.3555ZM98.5469 55.6406L97.579 55.892L97.5809 55.8995L97.583 55.907L98.5469 55.6406ZM98.793 66V67H99.793V66H98.793ZM96.0508 66H95.0508V67H96.0508V66ZM95.8398 56.332L94.907 56.6924L94.9106 56.7016L94.9143 56.7107L95.8398 56.332ZM95.2539 55.6172L94.7751 56.4951L94.7854 56.5007L94.7959 56.5062L95.2539 55.6172ZM93.4961 55.6523L94.0508 56.4844L94.0569 56.4803L93.4961 55.6523ZM92.5234 57.293L91.5487 57.0696L91.547 57.0772L91.5453 57.0849L92.5234 57.293ZM85.3711 55.8984V66H87.3711V55.8984H85.3711ZM86.3711 65H83.6406V67H86.3711V65ZM84.6406 66V53.3203H82.6406V66H84.6406ZM83.6406 54.3203H86.207V52.3203H83.6406V54.3203ZM85.209 53.3838L85.3731 55.9619L87.3691 55.8349L87.205 53.2568L85.209 53.3838ZM85.9258 58.2031H85V60.2031H85.9258V58.2031ZM85.9998 59.1854C85.9854 58.3718 86.0578 57.6422 86.2086 56.9912L84.2602 56.54C84.0672 57.3734 83.9833 58.2688 84.0002 59.2208L85.9998 59.1854ZM86.2063 57.0009C86.3643 56.3481 86.5915 55.8043 86.8759 55.3556L85.1866 54.285C84.7678 54.9457 84.4638 55.6988 84.2625 56.5303L86.2063 57.0009ZM86.8705 55.3641C87.147 54.9373 87.4774 54.6304 87.8613 54.4189L86.8965 52.667C86.2023 53.0493 85.6343 53.5939 85.192 54.2766L86.8705 55.3641ZM87.871 54.4135C88.2373 54.2065 88.6913 54.0859 89.2656 54.0859V52.0859C88.4024 52.0859 87.5986 52.2701 86.8868 52.6724L87.871 54.4135ZM89.2656 54.0859C89.6194 54.0859 89.9205 54.1491 90.182 54.262L90.9742 52.4255C90.4389 52.1946 89.8649 52.0859 89.2656 52.0859V54.0859ZM90.2037 54.271C90.4458 54.3688 90.6639 54.5262 90.8619 54.7658L92.4038 53.492C92.0079 53.0128 91.523 52.6469 90.9526 52.4165L90.2037 54.271ZM90.8701 54.7756C91.0647 55.0052 91.2419 55.3321 91.3759 55.7917L93.2959 55.2317C93.1019 54.5664 92.8103 53.9714 92.3956 53.4822L90.8701 54.7756ZM91.3759 55.7917C91.5059 56.2372 91.582 56.8171 91.582 57.5508H93.582C93.582 56.6907 93.4941 55.9112 93.2959 55.2317L91.3759 55.7917ZM91.582 57.5508V66H93.582V57.5508H91.582ZM92.582 65H89.8516V67H92.582V65ZM90.8516 66V57.8086H88.8516V66H90.8516ZM90.8516 57.8086C90.8516 57.142 90.7775 56.5169 90.5662 56.0003L88.7151 56.7575C88.785 56.9284 88.8516 57.2565 88.8516 57.8086H90.8516ZM90.5761 56.0255C90.3835 55.5158 90.06 55.0538 89.5537 54.7623L88.5557 56.4955C88.565 56.5009 88.6321 56.5389 88.7052 56.7323L90.5761 56.0255ZM89.5537 54.7623C89.1123 54.5082 88.6188 54.4062 88.1172 54.4062V56.4062C88.3499 56.4062 88.4814 56.4528 88.5557 56.4955L89.5537 54.7623ZM88.1172 54.4062C87.5409 54.4062 86.9883 54.5564 86.5122 54.9003L87.6831 56.5216C87.7695 56.4593 87.8966 56.4062 88.1172 56.4062V54.4062ZM86.5273 54.8896C86.0869 55.1954 85.7556 55.6094 85.5196 56.092L87.3164 56.9705C87.4241 56.75 87.5459 56.6171 87.6681 56.5323L86.5273 54.8896ZM85.5235 56.084C85.2992 56.5328 85.1482 57.0331 85.057 57.5712L87.0289 57.9054C87.094 57.5216 87.193 57.2172 87.3124 56.9785L85.5235 56.084ZM85.0575 57.5684C84.9685 58.0847 84.9258 58.6304 84.9258 59.2031H86.9258C86.9258 58.729 86.9612 58.2981 87.0284 57.9082L85.0575 57.5684ZM92.1827 57.5019L90.9054 57.7948L91.3525 59.7442L92.6298 59.4513L92.1827 57.5019ZM92.1287 58.7493C92.1147 58.0562 92.1849 57.4196 92.3328 56.835L90.3938 56.3447C90.1979 57.1195 90.1119 57.936 90.1291 58.7897L92.1287 58.7493ZM92.3334 56.8324C92.4816 56.2397 92.698 55.7405 92.9726 55.3224L91.3008 54.2245C90.8879 54.8533 90.5887 55.565 90.3931 56.3473L92.3334 56.8324ZM92.9669 55.331C93.2362 54.93 93.5606 54.6294 93.9426 54.4128L92.9559 52.6731C92.291 53.0502 91.7404 53.57 91.3066 54.2159L92.9669 55.331ZM93.9467 54.4104C94.307 54.2038 94.7443 54.0859 95.2891 54.0859V52.0859C94.4432 52.0859 93.654 52.2728 92.9517 52.6755L93.9467 54.4104ZM95.2891 54.0859C95.7262 54.0859 96.08 54.1576 96.3681 54.278L97.1397 52.4329C96.5685 52.194 95.9457 52.0859 95.2891 52.0859V54.0859ZM96.3825 54.2839C96.6471 54.3898 96.8771 54.5575 97.0794 54.8064L98.6316 53.5452C98.2245 53.0441 97.7201 52.6649 97.1253 52.427L96.3825 54.2839ZM97.0794 54.8064C97.2717 55.0432 97.4488 55.3909 97.579 55.892L99.5148 55.3892C99.3324 54.6872 99.0486 54.0584 98.6316 53.5452L97.0794 54.8064ZM97.583 55.907C97.7159 56.388 97.793 57.0154 97.793 57.8086H99.793C99.793 56.8987 99.706 56.0807 99.5108 55.3743L97.583 55.907ZM97.793 57.8086V66H99.793V57.8086H97.793ZM98.793 65H96.0508V67H98.793V65ZM97.0508 66V57.7969H95.0508V66H97.0508ZM97.0508 57.7969C97.0508 57.1127 96.9781 56.4733 96.7654 55.9534L94.9143 56.7107C94.9829 56.8783 95.0508 57.2154 95.0508 57.7969H97.0508ZM96.7726 55.9716C96.5762 55.4633 96.2413 55.001 95.7119 54.7282L94.7959 56.5062C94.7974 56.5069 94.7991 56.5079 94.8019 56.5102C94.8049 56.5127 94.8112 56.5183 94.8204 56.5294C94.839 56.5522 94.8716 56.6008 94.907 56.6924L96.7726 55.9716ZM95.7328 54.7393C95.2986 54.5025 94.8178 54.4062 94.3281 54.4062V56.4062C94.5572 56.4062 94.6936 56.4506 94.7751 56.4951L95.7328 54.7393ZM94.3281 54.4062C93.83 54.4062 93.3545 54.5404 92.9352 54.8244L94.0569 56.4803C94.1221 56.4361 94.2012 56.4062 94.3281 56.4062V54.4062ZM92.9414 54.8203C92.562 55.0732 92.2635 55.4125 92.0347 55.8047L93.7622 56.8125C93.8615 56.6422 93.9614 56.544 94.0508 56.4844L92.9414 54.8203ZM92.0347 55.8047C91.8114 56.1875 91.6532 56.6134 91.5487 57.0696L93.4982 57.5163C93.5655 57.2225 93.6574 56.9922 93.7622 56.8125L92.0347 55.8047ZM91.5453 57.0849C91.451 57.5283 91.4062 57.9932 91.4062 58.4766H93.4062C93.4062 58.1162 93.4396 57.792 93.5015 57.5011L91.5453 57.0849ZM104.453 53.3203H105.453V52.3203H104.453V53.3203ZM104.453 66V67H105.453V66H104.453ZM101.723 66H100.723V67H101.723V66ZM101.723 53.3203V52.3203H100.723V53.3203H101.723ZM101.98 48.9141L102.717 49.5907L102.726 49.5809L101.98 48.9141ZM103.453 53.3203V66H105.453V53.3203H103.453ZM104.453 65H101.723V67H104.453V65ZM102.723 66V53.3203H100.723V66H102.723ZM101.723 54.3203H104.453V52.3203H101.723V54.3203ZM102.582 50.0039C102.582 49.786 102.641 49.6736 102.717 49.5907L101.244 48.2374C100.789 48.7327 100.582 49.3468 100.582 50.0039H102.582ZM102.726 49.5809C102.764 49.5375 102.841 49.4688 103.094 49.4688V47.4688C102.394 47.4688 101.728 47.6968 101.235 48.2473L102.726 49.5809ZM103.094 49.4688C103.355 49.4688 103.434 49.5393 103.471 49.579L104.943 48.2257C104.449 47.6873 103.785 47.4688 103.094 47.4688V49.4688ZM103.471 49.579C103.547 49.6619 103.605 49.7743 103.605 49.9922H105.605C105.605 49.3351 105.398 48.7209 104.943 48.2257L103.471 49.579ZM103.605 49.9922C103.605 50.197 103.55 50.3073 103.471 50.3937L104.943 51.7469C105.395 51.2552 105.605 50.6468 105.605 49.9922H103.605ZM103.471 50.3937C103.434 50.4334 103.355 50.5039 103.094 50.5039V52.5039C103.785 52.5039 104.449 52.2854 104.943 51.7469L103.471 50.3937ZM103.094 50.5039C102.832 50.5039 102.753 50.4334 102.717 50.3937L101.244 51.7469C101.739 52.2854 102.402 52.5039 103.094 52.5039V50.5039ZM102.717 50.3937C102.634 50.3037 102.582 50.1956 102.582 50.0039H100.582C100.582 50.656 100.796 51.2588 101.244 51.7469L102.717 50.3937Z" fill="black" mask="url(#path-3-outside-2_243_3623)"/>
</g>
<g filter="url(#filter2_d_243_3623)">
<path d="M146.362 27.0861C146.41 26.9713 146.59 26.9713 146.638 27.0861L151.99 39.8193C152.027 39.9066 151.955 40 151.852 40H141.148C141.045 40 140.973 39.9066 141.01 39.8193L146.362 27.0861Z" fill="white"/>
<path d="M146.5 26.5C146.713 26.5 146.981 26.6105 147.099 26.8924L152.451 39.6255C152.657 40.1145 152.231 40.5 151.852 40.5H141.148C140.769 40.5 140.343 40.1145 140.549 39.6255M146.5 26.5L140.549 39.6255M146.5 26.5C146.287 26.5 146.019 26.6105 145.901 26.8924L140.549 39.6255M146.5 26.5L141.01 39.8193L140.549 39.6255M141.471 40.013L141.44 40L141.471 40.013L141.471 40.0127C141.471 40.0128 141.471 40.0129 141.471 40.013ZM146.177 27.2798L146.178 27.2804C146.177 27.2802 146.177 27.28 146.177 27.2798L146.302 27.2273L146.177 27.2798Z" stroke="black"/>
</g>
<g filter="url(#filter3_d_243_3623)">
<mask id="path-7-outside-3_243_3623" maskUnits="userSpaceOnUse" x="138" y="46" width="17" height="21" fill="black">
<rect fill="white" x="138" y="46" width="17" height="21"/>
<path d="M153.25 47.7969V66H149.609L143.297 54.0625V66H139.734V47.7969H143.375L149.688 59.7969V47.7969H153.25Z"/>
</mask>
<path d="M153.25 47.7969V66H149.609L143.297 54.0625V66H139.734V47.7969H143.375L149.688 59.7969V47.7969H153.25Z" fill="white"/>
<path d="M153.25 47.7969H154.25V46.7969H153.25V47.7969ZM153.25 66V67H154.25V66H153.25ZM149.609 66L148.725 66.4675L149.007 67H149.609V66ZM143.297 54.0625L144.181 53.595L142.297 54.0625H143.297ZM143.297 66V67H144.297V66H143.297ZM139.734 66H138.734V67H139.734V66ZM139.734 47.7969V46.7969H138.734V47.7969H139.734ZM143.375 47.7969L144.26 47.3313L143.979 46.7969H143.375V47.7969ZM149.688 59.7969L148.802 60.2624L150.688 59.7969H149.688ZM149.688 47.7969V46.7969H148.688V47.7969H149.688ZM152.25 47.7969V66H154.25V47.7969H152.25ZM153.25 65H149.609V67H153.25V65ZM150.493 65.5325L144.181 53.595L142.413 54.53L148.725 66.4675L150.493 65.5325ZM142.297 54.0625V66H144.297V54.0625H142.297ZM143.297 65H139.734V67H143.297V65ZM140.734 66V47.7969H138.734V66H140.734ZM139.734 48.7969H143.375V46.7969H139.734V48.7969ZM142.49 48.2624L148.802 60.2624L150.573 59.3313L144.26 47.3313L142.49 48.2624ZM150.688 59.7969V47.7969H148.688V59.7969H150.688ZM149.688 48.7969H153.25V46.7969H149.688V48.7969Z" fill="black" mask="url(#path-7-outside-3_243_3623)"/>
</g>
<defs>
<filter id="filter0_d_243_3623" x="0" y="49" width="122" height="37" filterUnits="userSpaceOnUse" color-interpolation-filters="sRGB">
<feFlood flood-opacity="0" result="BackgroundImageFix"/>
<feColorMatrix in="SourceAlpha" type="matrix" values="0 0 0 0 0 0 0 0 0 0 0 0 0 0 0 0 0 0 127 0" result="hardAlpha"/>
<feOffset/>
<feGaussianBlur stdDeviation="5"/>
<feComposite in2="hardAlpha" operator="out"/>
<feColorMatrix type="matrix" values="0 0 0 0 0 0 0 0 0 0 0 0 0 0 0 0 0 0 1 0"/>
<feBlend mode="normal" in2="BackgroundImageFix" result="effect1_dropShadow_243_3623"/>
<feBlend mode="normal" in="SourceGraphic" in2="effect1_dropShadow_243_3623" result="shape"/>
</filter>
<filter id="filter1_d_243_3623" x="46.6016" y="40.4688" width="66.0039" height="33.7656" filterUnits="userSpaceOnUse" color-interpolation-filters="sRGB">
<feFlood flood-opacity="0" result="BackgroundImageFix"/>
<feColorMatrix in="SourceAlpha" type="matrix" values="0 0 0 0 0 0 0 0 0 0 0 0 0 0 0 0 0 0 127 0" result="hardAlpha"/>
<feOffset/>
<feGaussianBlur stdDeviation="4"/>
<feComposite in2="hardAlpha" operator="out"/>
<feColorMatrix type="matrix" values="0 0 0 0 0 0 0 0 0 0 0 0 0 0 0 0 0 0 0.8 0"/>
<feBlend mode="normal" in2="BackgroundImageFix" result="effect1_dropShadow_243_3623"/>
<feBlend mode="normal" in="SourceGraphic" in2="effect1_dropShadow_243_3623" result="shape"/>
</filter>
<filter id="filter2_d_243_3623" x="129.99" y="16" width="33.019" height="35" filterUnits="userSpaceOnUse" color-interpolation-filters="sRGB">
<feFlood flood-opacity="0" result="BackgroundImageFix"/>
<feColorMatrix in="SourceAlpha" type="matrix" values="0 0 0 0 0 0 0 0 0 0 0 0 0 0 0 0 0 0 127 0" result="hardAlpha"/>
<feOffset/>
<feGaussianBlur stdDeviation="5"/>
<feComposite in2="hardAlpha" operator="out"/>
<feColorMatrix type="matrix" values="0 0 0 0 0 0 0 0 0 0 0 0 0 0 0 0 0 0 1 0"/>
<feBlend mode="normal" in2="BackgroundImageFix" result="effect1_dropShadow_243_3623"/>
<feBlend mode="normal" in="SourceGraphic" in2="effect1_dropShadow_243_3623" result="shape"/>
</filter>
<filter id="filter3_d_243_3623" x="129.734" y="37.7969" width="33.5156" height="38.2031" filterUnits="userSpaceOnUse" color-interpolation-filters="sRGB">
<feFlood flood-opacity="0" result="BackgroundImageFix"/>
<feColorMatrix in="SourceAlpha" type="matrix" values="0 0 0 0 0 0 0 0 0 0 0 0 0 0 0 0 0 0 127 0" result="hardAlpha"/>
<feOffset/>
<feGaussianBlur stdDeviation="5"/>
<feComposite in2="hardAlpha" operator="out"/>
<feColorMatrix type="matrix" values="0 0 0 0 0 0 0 0 0 0 0 0 0 0 0 0 0 0 1 0"/>
<feBlend mode="normal" in2="BackgroundImageFix" result="effect1_dropShadow_243_3623"/>
<feBlend mode="normal" in="SourceGraphic" in2="effect1_dropShadow_243_3623" result="shape"/>
</filter>
</defs>
</svg>
